<?xml version="1.0" encoding="UTF-8" standalone="no"?>
<svg width="234px" height="61px" viewBox="0 0 234 61" version="1.1" xmlns="http://www.w3.org/2000/svg" xmlns:xlink="http://www.w3.org/1999/xlink">
    <!-- Generator: Sketch 50 (54983) - http://www.bohemiancoding.com/sketch -->
    <title>Group 7</title>
    <desc>Created with Sketch.</desc>
    <defs></defs>
    <g id="Welcome" stroke="none" stroke-width="1" fill="none" fill-rule="evenodd">
        <g id="Group-7">
            <path d="M0.733333333,38 C0.555554667,38 0.444444667,37.9722225 0.4,37.9166667 C0.355555333,37.8611108 0.333333333,37.7444453 0.333333333,37.5666667 L0.333333333,0.633333333 C0.333333333,0.455554667 0.361110833,0.338889167 0.416666667,0.283333333 C0.4722225,0.2277775 0.588888,0.2 0.766666667,0.2 L4.76666667,0.2 C5.70000467,0.2 6.46110817,0.3388875 7.05,0.616666667 C7.63889183,0.894445833 8.08888733,1.23333133 8.4,1.63333333 C8.71111267,2.03333533 8.92222167,2.46666433 9.03333333,2.93333333 C9.144445,3.40000233 9.2,3.81110933 9.2,4.16666667 L9.2,14.4 C9.2,15.3555603 9.133334,16.2166628 9,16.9833333 C8.866666,17.7500038 8.477781,18.3333313 7.83333333,18.7333333 C8.16666833,18.9333343 8.42222133,19.1999983 8.6,19.5333333 C8.77777867,19.8666683 8.91111067,20.2444423 9,20.6666667 C9.08888933,21.088891 9.14444433,21.5166645 9.16666667,21.95 C9.188889,22.3833355 9.2,22.799998 9.2,23.2 L9.2,34.0333333 C9.2,34.3888907 9.144445,34.7944422 9.03333333,35.25 C8.92222167,35.7055578 8.70555717,36.1388868 8.38333333,36.55 C8.0611095,36.9611132 7.600003,37.3055542 7,37.5833333 C6.399997,37.8611125 5.600005,38 4.6,38 L0.733333333,38 Z M2.73333333,19.8666667 L2.73333333,35.8 L4.76666667,35.8 C5.54444833,35.8 6.07777633,35.622224 6.36666667,35.2666667 C6.655557,34.9111093 6.8,34.4888913 6.8,34 L6.8,23.2 C6.8,22.866665 6.788889,22.5055575 6.76666667,22.1166667 C6.74444433,21.7277758 6.67222283,21.3666683 6.55,21.0333333 C6.42777717,20.6999983 6.24444567,20.4222233 6,20.2 C5.75555433,19.9777767 5.41111333,19.8666667 4.96666667,19.8666667 L2.73333333,19.8666667 Z M2.73333333,2.4 L2.73333333,17.6666667 L4.96666667,17.6666667 C5.43333567,17.6666667 5.78888767,17.5555567 6.03333333,17.3333333 C6.277779,17.11111 6.455555,16.833335 6.56666667,16.5 C6.67777833,16.166665 6.74444433,15.8055575 6.76666667,15.4166667 C6.788889,15.0277758 6.8,14.6666683 6.8,14.3333333 L6.8,4.2 C6.8,3.71110867 6.655557,3.28889067 6.36666667,2.93333333 C6.07777633,2.577776 5.54444833,2.4 4.76666667,2.4 L2.73333333,2.4 Z M22.8000002,38 C22.4666652,38 22.2666672,37.9722225 22.2000002,37.9166667 C22.1333332,37.8611108 22.1000002,37.7222233 22.1000002,37.5 L22.1000002,0.666666667 C22.1000002,0.422221 22.1555552,0.288889 22.2666669,0.266666667 C22.3777786,0.244444333 22.6222206,0.233333333 23.0000002,0.233333333 L29.0666669,0.233333333 C29.3111126,0.233333333 29.4333336,0.422220333 29.4333336,0.8 L29.4333336,1.16666667 C29.4333336,2.01111533 29.0222266,2.43333333 28.2000002,2.43333333 L24.5000002,2.43333333 L24.5000002,18.2666667 L28.7666669,18.2666667 C29.0111126,18.2666667 29.1333336,18.4555537 29.1333336,18.8333333 L29.1333336,19.2 C29.1333336,19.533335 29.0666676,19.7833325 28.9333336,19.95 C28.7999996,20.1166675 28.6222236,20.2388885 28.4000002,20.3166667 C28.1777769,20.3944448 27.9388904,20.4388888 27.6833336,20.45 C27.4277767,20.4611112 27.1666682,20.4666667 26.9000002,20.4666667 L24.5000002,20.4666667 L24.5000002,35.8 L28.2000002,35.8 C29.0222266,35.8 29.4333336,36.222218 29.4333336,37.0666667 L29.4333336,37.4333333 C29.4333336,37.811113 29.3111126,38 29.0666669,38 L22.8000002,38 Z M50.2000004,37.5666667 C50.2000004,37.7444453 50.1722229,37.8611108 50.1166671,37.9166667 C50.0611113,37.9722225 49.9444458,38 49.7666671,38 L48.9333338,38 C48.6222211,38 48.3500016,37.900001 48.1166671,37.7 C47.8833326,37.499999 47.7666671,37.244446 47.7666671,36.9333333 L47.7666671,20.1 L43.7333338,20.1 L43.7333338,36.9333333 C43.7333338,37.244446 43.6222238,37.499999 43.4000004,37.7 C43.1777771,37.900001 42.9000021,38 42.5666671,38 L41.7666671,38 C41.5888884,38 41.4722229,37.9722225 41.4166671,37.9166667 C41.3611113,37.8611108 41.3333338,37.7444453 41.3333338,37.5666667 L41.3333338,0.666666667 C41.3333338,0.488888 41.3611113,0.3722225 41.4166671,0.316666667 C41.4722229,0.261110833 41.5888884,0.233333333 41.7666671,0.233333333 L42.5666671,0.233333333 C43.3444488,0.233333333 43.7333338,0.644440333 43.7333338,1.46666667 L43.7333338,18 L47.7666671,18 L47.7666671,1.3 C47.7666671,0.988887333 47.8833326,0.733334333 48.1166671,0.533333333 C48.3500016,0.333332333 48.6333321,0.233333333 48.9666671,0.233333333 L49.7666671,0.233333333 C49.9444458,0.233333333 50.0611113,0.261110833 50.1166671,0.316666667 C50.1722229,0.3722225 50.2000004,0.488888 50.2000004,0.666666667 L50.2000004,37.5666667 Z M65.4000007,37.3333333 C65.4000007,37.77778 65.1888917,38 64.7666673,38 L63.633334,38 C63.2111097,38 63.0000007,37.77778 63.0000007,37.3333333 L63.0000007,1.33333333 C63.0000007,1.02222067 63.1166662,0.761112167 63.3500007,0.55 C63.5833352,0.338887833 63.8666657,0.233333333 64.2000007,0.233333333 L65.0000007,0.233333333 C65.1777793,0.233333333 65.2888893,0.261110833 65.333334,0.316666667 C65.3777787,0.3722225 65.4000007,0.488888 65.4000007,0.666666667 L65.4000007,37.3333333 Z M87.0666676,37.5666667 C87.0666676,37.855557 86.9222246,38 86.6333342,38 L85.8333342,38 C85.5666662,38 85.3500017,37.922223 85.1833342,37.7666667 C85.0166667,37.6111103 84.8777792,37.4055568 84.7666676,37.15 C84.6555559,36.8944432 84.5722234,36.6111127 84.5166676,36.3 C84.4611117,35.9888873 84.4000012,35.6666683 84.3333342,35.3333333 L80.3666676,11.1333333 L80.6000009,36.8666667 C80.6222232,37.2444463 80.5166687,37.5277768 80.2833342,37.7166667 C80.0499997,37.9055565 79.7666692,38 79.4333342,38 L78.6333342,38 C78.3444439,38 78.2000009,37.855557 78.2000009,37.5666667 L78.2000009,0.666666667 C78.2000009,0.488888 78.2277784,0.3722225 78.2833342,0.316666667 C78.3388901,0.261110833 78.4555556,0.233333333 78.6333342,0.233333333 L79.4666676,0.233333333 C79.8444472,0.233333333 80.1499997,0.472219833 80.3833342,0.95 C80.6166687,1.42778017 80.8111112,2.14443967 80.9666676,3.1 L84.9000009,27 L84.6333342,1.33333333 C84.6333342,1.02222067 84.7444442,0.761112167 84.9666676,0.55 C85.1888909,0.338887833 85.4777769,0.233333333 85.8333342,0.233333333 L86.6333342,0.233333333 C86.8111129,0.233333333 86.9277784,0.261110833 86.9833342,0.316666667 C87.0388901,0.3722225 87.0666676,0.488888 87.0666676,0.666666667 L87.0666676,37.5666667 Z M100.300001,38 C100.122222,38 100.005557,37.9722225 99.9500011,37.9166667 C99.8944453,37.8611108 99.8666678,37.7444453 99.8666678,37.5666667 L99.8666678,0.666666667 C99.8666678,0.488888 99.8944453,0.3722225 99.9500011,0.316666667 C100.005557,0.261110833 100.122222,0.233333333 100.300001,0.233333333 L104.300001,0.233333333 C105.233339,0.233333333 105.988887,0.372220833 106.566668,0.65 C107.144448,0.927779167 107.594444,1.27222017 107.916668,1.68333333 C108.238892,2.0944465 108.455556,2.533331 108.566668,3 C108.677779,3.466669 108.733334,3.888887 108.733334,4.26666667 L108.733334,33.9333333 C108.733334,35.311118 108.350005,36.33333 107.583334,37 C106.816664,37.66667 105.788896,38 104.500001,38 L100.300001,38 Z M104.500001,35.8 C105.188893,35.8 105.666666,35.6166685 105.933334,35.25 C106.200002,34.8833315 106.333334,34.466669 106.333334,34 L106.333334,4.23333333 C106.333334,3.744442 106.188891,3.322224 105.900001,2.96666667 C105.611111,2.61110933 105.077783,2.43333333 104.300001,2.43333333 L102.266668,2.43333333 L102.266668,35.8 L104.500001,35.8 Z M139.266668,37.3333333 C139.266668,37.77778 139.055559,38 138.633335,38 L137.500002,38 C137.077777,38 136.866668,37.77778 136.866668,37.3333333 L136.866668,1.33333333 C136.866668,1.02222067 136.983334,0.761112167 137.216668,0.55 C137.450003,0.338887833 137.733333,0.233333333 138.066668,0.233333333 L138.866668,0.233333333 C139.044447,0.233333333 139.155557,0.261110833 139.200002,0.316666667 C139.244446,0.3722225 139.266668,0.488888 139.266668,0.666666667 L139.266668,37.3333333 Z M156.833335,37.3333333 C156.833335,37.77778 156.611115,38 156.166668,38 L155.033335,38 C154.611111,38 154.400002,37.77778 154.400002,37.3333333 L154.400002,2.43333333 L152.200002,2.43333333 C151.377775,2.43333333 150.966668,2.01111533 150.966668,1.16666667 L150.966668,0.8 C150.966668,0.422220333 151.088889,0.233333333 151.333335,0.233333333 L159.833335,0.233333333 C160.077781,0.233333333 160.200002,0.422220333 160.200002,0.8 L160.200002,1.16666667 C160.200002,2.01111533 159.788895,2.43333333 158.966668,2.43333333 L156.833335,2.43333333 L156.833335,37.3333333 Z M195.566669,37.5333333 C195.566669,37.711112 195.544447,37.833333 195.500002,37.9 C195.455558,37.966667 195.344448,38 195.166669,38 L194.400002,38 C194.08889,38 193.800004,37.911112 193.533336,37.7333333 C193.266668,37.5555547 193.122225,37.3111127 193.100002,37 L192.633336,30.8 L189.033336,30.8 L188.600002,37 C188.555558,37.3111127 188.405559,37.5555547 188.150002,37.7333333 C187.894445,37.911112 187.611115,38 187.300002,38 L186.533336,38 C186.222223,38 186.07778,37.844446 186.100002,37.5333333 L189.200002,0.866666667 C189.222225,0.444442333 189.444445,0.233333333 189.866669,0.233333333 L191.833336,0.233333333 C192.233338,0.233333333 192.466669,0.444442333 192.533336,0.866666667 L195.566669,37.5333333 Z M189.200002,28.7333333 L192.500002,28.7333333 L190.833336,5.53333333 L190.833336,5.73333333 L189.200002,28.7333333 Z M207.766669,38 C207.566668,38 207.444447,37.9611115 207.400002,37.8833333 C207.355558,37.8055552 207.333336,37.6777787 207.333336,37.5 L207.333336,0.666666667 C207.333336,0.488888 207.361113,0.3722225 207.416669,0.316666667 C207.472225,0.261110833 207.58889,0.233333333 207.766669,0.233333333 L208.566669,0.233333333 C209.344451,0.233333333 209.733336,0.644440333 209.733336,1.46666667 L209.733336,35.8 L213.400002,35.8 C214.222229,35.8 214.633336,36.222218 214.633336,37.0666667 L214.633336,37.4333333 C214.633336,37.811113 214.511115,38 214.266669,38 L207.766669,38 Z M226.433336,38 C226.233335,38 226.111114,37.9611115 226.066669,37.8833333 C226.022225,37.8055552 226.000003,37.6777787 226.000003,37.5 L226.000003,0.666666667 C226.000003,0.488888 226.02778,0.3722225 226.083336,0.316666667 C226.138892,0.261110833 226.255557,0.233333333 226.433336,0.233333333 L227.233336,0.233333333 C228.011118,0.233333333 228.400003,0.644440333 228.400003,1.46666667 L228.400003,35.8 L232.066669,35.8 C232.888896,35.8 233.300003,36.222218 233.300003,37.0666667 L233.300003,37.4333333 C233.300003,37.811113 233.177782,38 232.933336,38 L226.433336,38 Z" id="behind-it-all" fill="#00A69E"></path>
            <path d="M182.5,56.5 L0.497252768,56.5" id="Line-14" stroke="#FDFDFD" stroke-linecap="square"></path>
            <path d="M195.314,51.64 L201.619,51.64 C202.052335,51.64 202.422832,51.7938318 202.7305,52.1015 C203.038168,52.4091682 203.192,52.7839978 203.192,53.226 L203.192,59.427 C203.192,59.8603355 203.038168,60.2308318 202.7305,60.5385 C202.422832,60.8461682 202.052335,61 201.619,61 L195.314,61 C194.871998,61 194.499335,60.8461682 194.196,60.5385 C193.892665,60.2308318 193.741,59.8603355 193.741,59.427 L193.741,53.226 C193.741,52.7839978 193.892665,52.4091682 194.196,52.1015 C194.499335,51.7938318 194.871998,51.64 195.314,51.64 Z M201.983,52.719 L195.314,52.719 C195.175333,52.719 195.056167,52.7688328 194.9565,52.8685 C194.856833,52.9681672 194.807,53.0873326 194.807,53.226 L194.807,58.647 L201.983,52.719 Z M194.937,59.934 L201.619,59.934 C201.757667,59.934 201.876833,59.8841672 201.9765,59.7845 C202.076167,59.6848328 202.126,59.5656674 202.126,59.427 L202.126,54.006 L194.937,59.934 Z M205.397667,51.64 L211.702667,51.64 C212.136002,51.64 212.506499,51.7938318 212.814167,52.1015 C213.121835,52.4091682 213.275667,52.7839978 213.275667,53.226 L213.275667,59.427 C213.275667,59.8603355 213.121835,60.2308318 212.814167,60.5385 C212.506499,60.8461682 212.136002,61 211.702667,61 L205.397667,61 C204.955665,61 204.583002,60.8461682 204.279667,60.5385 C203.976332,60.2308318 203.824667,59.8603355 203.824667,59.427 L203.824667,53.226 C203.824667,52.7839978 203.976332,52.4091682 204.279667,52.1015 C204.583002,51.7938318 204.955665,51.64 205.397667,51.64 Z M212.066667,52.719 L205.397667,52.719 C205.258999,52.719 205.139834,52.7688328 205.040167,52.8685 C204.9405,52.9681672 204.890667,53.0873326 204.890667,53.226 L204.890667,58.647 L212.066667,52.719 Z M205.020667,59.934 L211.702667,59.934 C211.841334,59.934 211.9605,59.8841672 212.060167,59.7845 C212.159834,59.6848328 212.209667,59.5656674 212.209667,59.427 L212.209667,54.006 L205.020667,59.934 Z M215.481333,51.64 L221.786333,51.64 C222.219669,51.64 222.590165,51.7938318 222.897833,52.1015 C223.205502,52.4091682 223.359333,52.7839978 223.359333,53.226 L223.359333,59.427 C223.359333,59.8603355 223.205502,60.2308318 222.897833,60.5385 C222.590165,60.8461682 222.219669,61 221.786333,61 L215.481333,61 C215.039331,61 214.666668,60.8461682 214.363333,60.5385 C214.059999,60.2308318 213.908333,59.8603355 213.908333,59.427 L213.908333,53.226 C213.908333,52.7839978 214.059999,52.4091682 214.363333,52.1015 C214.666668,51.7938318 215.039331,51.64 215.481333,51.64 Z M222.150333,52.719 L215.481333,52.719 C215.342666,52.719 215.223501,52.7688328 215.123833,52.8685 C215.024166,52.9681672 214.974333,53.0873326 214.974333,53.226 L214.974333,58.647 L222.150333,52.719 Z M215.104333,59.934 L221.786333,59.934 C221.925001,59.934 222.044166,59.8841672 222.143833,59.7845 C222.243501,59.6848328 222.293333,59.5656674 222.293333,59.427 L222.293333,54.006 L215.104333,59.934 Z M232.832,55.852 L232.884,56.086 C233.230669,56.4066683 233.404,56.7966644 233.404,57.256 L233.404,59.427 C233.404,59.8603355 233.250168,60.2308318 232.9425,60.5385 C232.634832,60.8461682 232.264336,61 231.831,61 L225.526,61 C225.083998,61 224.709168,60.8461682 224.4015,60.5385 C224.093832,60.2308318 223.94,59.8603355 223.94,59.427 L223.94,59.219 L225.019,59.219 L225.019,59.427 C225.019,59.5656674 225.068833,59.6848328 225.1685,59.7845 C225.268167,59.8841672 225.387333,59.934 225.526,59.934 L231.831,59.934 C231.969668,59.934 232.088833,59.8841672 232.1885,59.7845 C232.288167,59.6848328 232.338,59.5656674 232.338,59.427 L232.338,57.256 C232.338,57.1173326 232.288167,56.9981672 232.1885,56.8985 C232.088833,56.7988328 231.969668,56.749 231.831,56.749 L225.734,56.749 L225.734,55.683 L231.415,55.683 C231.553668,55.683 231.672833,55.6331672 231.7725,55.5335 C231.872167,55.4338328 231.922,55.3146674 231.922,55.176 L231.922,53.213 C231.922,53.0743326 231.872167,52.9551672 231.7725,52.8555 C231.672833,52.7558328 231.553668,52.706 231.415,52.706 L225.526,52.706 C225.387333,52.706 225.268167,52.7558328 225.1685,52.8555 C225.068833,52.9551672 225.019,53.0743326 225.019,53.213 L225.019,53.551 L223.94,53.551 L223.94,53.213 C223.94,52.7709978 224.093832,52.3961682 224.4015,52.0885 C224.709168,51.7808318 225.083998,51.627 225.526,51.627 L231.415,51.627 C231.857002,51.627 232.229665,51.7808318 232.533,52.0885 C232.836335,52.3961682 232.988,52.7709978 232.988,53.213 L232.988,55.176 C232.988,55.4013345 232.936001,55.6266655 232.832,55.852 Z" id="0003" fill="#00A69E"></path>
        </g>
    </g>
</svg>