<?xml version="1.0" encoding="UTF-8" standalone="no"?>
<svg width="223px" height="59px" viewBox="0 0 223 59" version="1.1" xmlns="http://www.w3.org/2000/svg" xmlns:xlink="http://www.w3.org/1999/xlink">
    <!-- Generator: Sketch 50 (54983) - http://www.bohemiancoding.com/sketch -->
    <title>Group 8</title>
    <desc>Created with Sketch.</desc>
    <defs></defs>
    <g id="Welcome" stroke="none" stroke-width="1" fill="none" fill-rule="evenodd">
        <g id="Group-8">
            <path d="M1.573,49.013 L7.878,49.013 C8.3113355,49.013 8.6818318,49.1668318 8.9895,49.4745 C9.29716821,49.7821682 9.451,50.1569978 9.451,50.599 L9.451,56.8 C9.451,57.2333355 9.29716821,57.6038318 8.9895,57.9115 C8.6818318,58.2191682 8.3113355,58.373 7.878,58.373 L1.573,58.373 C1.13099779,58.373 0.75833485,58.2191682 0.455,57.9115 C0.15166515,57.6038318 0,57.2333355 0,56.8 L0,50.599 C0,50.1569978 0.15166515,49.7821682 0.455,49.4745 C0.75833485,49.1668318 1.13099779,49.013 1.573,49.013 Z M8.242,50.092 L1.573,50.092 C1.43433264,50.092 1.31516717,50.1418328 1.2155,50.2415 C1.11583284,50.3411672 1.066,50.4603326 1.066,50.599 L1.066,56.02 L8.242,50.092 Z M1.196,57.307 L7.878,57.307 C8.01666736,57.307 8.13583283,57.2571672 8.2355,57.1575 C8.33516716,57.0578328 8.385,56.9386674 8.385,56.8 L8.385,51.379 L1.196,57.307 Z M12.415,49.013 L18.72,49.013 C19.1533355,49.013 19.5238318,49.1668318 19.8315,49.4745 C20.1391682,49.7821682 20.293,50.1569978 20.293,50.599 L20.293,56.8 C20.293,57.2333355 20.1391682,57.6038318 19.8315,57.9115 C19.5238318,58.2191682 19.1533355,58.373 18.72,58.373 L12.415,58.373 C11.9729978,58.373 11.6003348,58.2191682 11.297,57.9115 C10.9936652,57.6038318 10.842,57.2333355 10.842,56.8 L10.842,50.599 C10.842,50.1569978 10.9936652,49.7821682 11.297,49.4745 C11.6003348,49.1668318 11.9729978,49.013 12.415,49.013 Z M19.084,50.092 L12.415,50.092 C12.2763326,50.092 12.1571672,50.1418328 12.0575,50.2415 C11.9578328,50.3411672 11.908,50.4603326 11.908,50.599 L11.908,56.02 L19.084,50.092 Z M12.038,57.307 L18.72,57.307 C18.8586674,57.307 18.9778328,57.2571672 19.0775,57.1575 C19.1771672,57.0578328 19.227,56.9386674 19.227,56.8 L19.227,51.379 L12.038,57.307 Z M23.257,49.013 L29.562,49.013 C29.9953355,49.013 30.3658318,49.1668318 30.6735,49.4745 C30.9811682,49.7821682 31.135,50.1569978 31.135,50.599 L31.135,56.8 C31.135,57.2333355 30.9811682,57.6038318 30.6735,57.9115 C30.3658318,58.2191682 29.9953355,58.373 29.562,58.373 L23.257,58.373 C22.8149978,58.373 22.4423349,58.2191682 22.139,57.9115 C21.8356651,57.6038318 21.684,57.2333355 21.684,56.8 L21.684,50.599 C21.684,50.1569978 21.8356651,49.7821682 22.139,49.4745 C22.4423349,49.1668318 22.8149978,49.013 23.257,49.013 Z M29.926,50.092 L23.257,50.092 C23.1183326,50.092 22.9991672,50.1418328 22.8995,50.2415 C22.7998328,50.3411672 22.75,50.4603326 22.75,50.599 L22.75,56.02 L29.926,50.092 Z M22.88,57.307 L29.562,57.307 C29.7006674,57.307 29.8198328,57.2571672 29.9195,57.1575 C30.0191672,57.0578328 30.069,56.9386674 30.069,56.8 L30.069,51.379 L22.88,57.307 Z M39.455,54.889 L40.911,54.889 L40.911,55.955 L39.455,55.955 L39.455,58.373 L38.389,58.373 L38.389,55.955 L31.863,55.955 L31.863,54.759 L38.259,49 L39.455,49 L39.455,54.889 Z M38.389,50.703 L33.228,54.889 L38.389,54.889 L38.389,50.703 Z" id="0004" fill="#00A69E"></path>
            <path d="M51.5,53.5 L222.5,53.5" id="Line-15" stroke="#1D2125" stroke-linecap="square"></path>
            <path d="M4.46666667,0.0333333333 C5.86667367,0.0555556667 6.95555167,0.433329667 7.73333333,1.16666667 C8.511115,1.90000367 8.9,2.84443867 8.9,4 L8.9,15.9333333 C8.9,16.1333343 8.755557,16.2333333 8.46666667,16.2333333 L7.66666667,16.2333333 C7.46666567,16.2333333 7.22222367,16.1666673 6.93333333,16.0333333 C6.644443,15.8999993 6.5,15.6444463 6.5,15.2666667 L6.5,4.06666667 C6.5,3.57777533 6.344446,3.15555733 6.03333333,2.8 C5.72222067,2.44444267 5.20000367,2.26666667 4.46666667,2.26666667 C3.71110733,2.26666667 3.17777933,2.44444267 2.86666667,2.8 C2.555554,3.15555733 2.4,3.57777533 2.4,4.06666667 L2.4,34.9333333 C2.4,35.4000023 2.5499985,35.8111093 2.85,36.1666667 C3.1500015,36.522224 3.688885,36.7 4.46666667,36.7 C4.86666867,36.7 5.19999867,36.644445 5.46666667,36.5333333 C5.73333467,36.4222217 5.94444367,36.2833342 6.1,36.1166667 C6.25555633,35.9499992 6.36111083,35.7611122 6.41666667,35.55 C6.4722225,35.3388878 6.5,35.1333343 6.5,34.9333333 L6.5,22.2 L5.7,22.2 C4.92221833,22.2 4.53333333,21.777782 4.53333333,20.9333333 L4.53333333,20.3666667 C4.53333333,20.188888 4.55555533,20.055556 4.6,19.9666667 C4.64444467,19.8777773 4.75555467,19.8333333 4.93333333,19.8333333 L8.53333333,19.8333333 C8.777779,19.8333333 8.9,19.9555543 8.9,20.2 L8.9,34.9666667 C8.9,36.122228 8.511115,37.066663 7.73333333,37.8 C6.95555167,38.533337 5.86667367,38.9 4.46666667,38.9 C3.06665967,38.9 1.97222617,38.533337 1.18333333,37.8 C0.3944405,37.066663 0,36.122228 0,34.9666667 L0,4 C0,2.84443867 0.3944405,1.89444817 1.18333333,1.15 C1.97222617,0.405551833 3.06665967,0.0333333333 4.46666667,0.0333333333 Z M22.566667,38.3666667 C22.233332,38.3666667 22.033334,38.3388892 21.966667,38.2833333 C21.9,38.2277775 21.866667,38.08889 21.866667,37.8666667 L21.866667,1.03333333 C21.866667,0.788887667 21.922222,0.655555667 22.0333337,0.633333333 C22.1444453,0.611111 22.3888873,0.6 22.766667,0.6 L28.8333337,0.6 C29.0777793,0.6 29.2000003,0.788887 29.2000003,1.16666667 L29.2000003,1.53333333 C29.2000003,2.377782 28.7888933,2.8 27.966667,2.8 L24.266667,2.8 L24.266667,18.6333333 L28.5333337,18.6333333 C28.7777793,18.6333333 28.9000003,18.8222203 28.9000003,19.2 L28.9000003,19.5666667 C28.9000003,19.9000017 28.8333343,20.1499992 28.7000003,20.3166667 C28.5666663,20.4833342 28.3888903,20.6055552 28.166667,20.6833333 C27.9444437,20.7611115 27.7055572,20.8055555 27.4500003,20.8166667 C27.1944435,20.8277778 26.933335,20.8333333 26.666667,20.8333333 L24.266667,20.8333333 L24.266667,36.1666667 L27.966667,36.1666667 C28.7888933,36.1666667 29.2000003,36.5888847 29.2000003,37.4333333 L29.2000003,37.8 C29.2000003,38.1777797 29.0777793,38.3666667 28.8333337,38.3666667 L22.566667,38.3666667 Z M45.8666673,37.7 C45.8666673,38.1444467 45.6444473,38.3666667 45.2000007,38.3666667 L44.0666673,38.3666667 C43.644443,38.3666667 43.433334,38.1444467 43.433334,37.7 L43.433334,2.8 L41.233334,2.8 C40.4111077,2.8 40.0000007,2.377782 40.0000007,1.53333333 L40.0000007,1.16666667 C40.0000007,0.788887 40.1222217,0.6 40.3666673,0.6 L48.8666673,0.6 C49.111113,0.6 49.233334,0.788887 49.233334,1.16666667 L49.233334,1.53333333 C49.233334,2.377782 48.822227,2.8 48.0000007,2.8 L45.8666673,2.8 L45.8666673,37.7 Z M78.6333347,37.7 C78.6333347,38.1444467 78.4222257,38.3666667 78.0000013,38.3666667 L76.866668,38.3666667 C76.4444437,38.3666667 76.2333347,38.1444467 76.2333347,37.7 L76.2333347,1.7 C76.2333347,1.38888733 76.3500002,1.12777883 76.5833347,0.916666667 C76.8166692,0.7055545 77.0999997,0.6 77.4333347,0.6 L78.2333347,0.6 C78.4111133,0.6 78.5222233,0.6277775 78.566668,0.683333333 C78.6111127,0.738889167 78.6333347,0.855554667 78.6333347,1.03333333 L78.6333347,37.7 Z M100.300002,37.9333333 C100.300002,38.2222237 100.155559,38.3666667 99.8666683,38.3666667 L99.0666683,38.3666667 C98.8000003,38.3666667 98.5833358,38.2888897 98.4166683,38.1333333 C98.2500008,37.977777 98.1111133,37.7722235 98.0000017,37.5166667 C97.88889,37.2611098 97.8055575,36.9777793 97.7500017,36.6666667 C97.6944458,36.355554 97.6333353,36.033335 97.5666683,35.7 L93.6000017,11.5 L93.833335,37.2333333 C93.8555573,37.611113 93.7500028,37.8944435 93.5166683,38.0833333 C93.2833338,38.2722232 93.0000033,38.3666667 92.6666683,38.3666667 L91.8666683,38.3666667 C91.577778,38.3666667 91.433335,38.2222237 91.433335,37.9333333 L91.433335,1.03333333 C91.433335,0.855554667 91.4611125,0.738889167 91.5166683,0.683333333 C91.5722242,0.6277775 91.6888897,0.6 91.8666683,0.6 L92.7000017,0.6 C93.0777813,0.6 93.3833338,0.8388865 93.6166683,1.31666667 C93.8500028,1.79444683 94.0444453,2.51110633 94.2000017,3.46666667 L98.133335,27.3666667 L97.8666683,1.7 C97.8666683,1.38888733 97.9777783,1.12777883 98.2000017,0.916666667 C98.422225,0.7055545 98.711111,0.6 99.0666683,0.6 L99.8666683,0.6 C100.044447,0.6 100.161112,0.6277775 100.216668,0.683333333 C100.272224,0.738889167 100.300002,0.855554667 100.300002,1.03333333 L100.300002,37.9333333 Z M133.200002,37.7 C133.200002,38.1444467 132.977782,38.3666667 132.533336,38.3666667 L131.400002,38.3666667 C130.977778,38.3666667 130.766669,38.1444467 130.766669,37.7 L130.766669,2.8 L128.566669,2.8 C127.744443,2.8 127.333336,2.377782 127.333336,1.53333333 L127.333336,1.16666667 C127.333336,0.788887 127.455557,0.6 127.700002,0.6 L136.200002,0.6 C136.444448,0.6 136.566669,0.788887 136.566669,1.16666667 L136.566669,1.53333333 C136.566669,2.377782 136.155562,2.8 135.333336,2.8 L133.200002,2.8 L133.200002,37.7 Z M148.300003,4 C148.300003,3.51110867 148.383335,3.03333567 148.550003,2.56666667 C148.71667,2.09999767 148.972223,1.67777967 149.316669,1.3 C149.661116,0.922220333 150.116667,0.616667833 150.683336,0.383333333 C151.250006,0.149998833 151.933332,0.0333333333 152.733336,0.0333333333 C153.53334,0.0333333333 154.216666,0.149998833 154.783336,0.383333333 C155.350005,0.616667833 155.811112,0.922220333 156.166669,1.3 C156.522227,1.67777967 156.783335,2.09999767 156.950003,2.56666667 C157.11667,3.03333567 157.200003,3.51110867 157.200003,4 L157.200003,34.9333333 C157.200003,35.3333353 157.133337,35.7611088 157.000003,36.2166667 C156.866669,36.6722245 156.627782,37.099998 156.283336,37.5 C155.93889,37.900002 155.483339,38.2277765 154.916669,38.4833333 C154.35,38.7388902 153.63334,38.8666667 152.766669,38.8666667 C151.899998,38.8666667 151.183339,38.7388902 150.616669,38.4833333 C150.05,38.2277765 149.594449,37.9055575 149.250003,37.5166667 C148.905556,37.1277758 148.661114,36.7055578 148.516669,36.25 C148.372224,35.7944422 148.300003,35.3555577 148.300003,34.9333333 L148.300003,4 Z M150.700003,34.9 C150.700003,35.3888913 150.850001,35.8111093 151.150003,36.1666667 C151.450004,36.522224 151.988888,36.7 152.766669,36.7 C153.544451,36.7 154.077779,36.522224 154.366669,36.1666667 C154.65556,35.8111093 154.800003,35.3888913 154.800003,34.9 L154.800003,4.03333333 C154.800003,3.544442 154.650004,3.122224 154.350003,2.76666667 C154.050001,2.41110933 153.511118,2.23333333 152.733336,2.23333333 C151.955554,2.23333333 151.422226,2.41666483 151.133336,2.78333333 C150.844446,3.15000183 150.700003,3.56666433 150.700003,4.03333333 L150.700003,34.9 Z M172.46667,34.9333333 C172.46667,35.1333343 172.494447,35.3388878 172.550003,35.55 C172.605559,35.7611122 172.711113,35.9499992 172.86667,36.1166667 C173.022226,36.2833342 173.233335,36.4222217 173.500003,36.5333333 C173.766671,36.644445 174.100001,36.7 174.500003,36.7 C175.277785,36.7 175.811113,36.533335 176.100003,36.2 C176.388893,35.866665 176.533336,35.444447 176.533336,34.9333333 L176.533336,1.63333333 C176.533336,1.32222067 176.650002,1.06666767 176.883336,0.866666667 C177.116671,0.666665667 177.38889,0.566666667 177.700003,0.566666667 L178.500003,0.566666667 C178.677782,0.566666667 178.794447,0.594444167 178.850003,0.65 C178.905559,0.705555833 178.933336,0.822221333 178.933336,1 L178.933336,34.9666667 C178.933336,35.388891 178.861115,35.8277755 178.71667,36.2833333 C178.572224,36.7388912 178.327782,37.1611092 177.983336,37.55 C177.63889,37.9388908 177.183339,38.2611098 176.61667,38.5166667 C176.05,38.7722235 175.355563,38.9 174.533336,38.9 C173.755555,38.9 173.088895,38.78889 172.533336,38.5666667 C171.977778,38.3444433 171.516671,38.0500018 171.150003,37.6833333 C170.783334,37.3166648 170.511115,36.9000023 170.333336,36.4333333 C170.155558,35.9666643 170.06667,35.4777803 170.06667,34.9666667 L170.06667,1 C170.06667,0.822221333 170.094447,0.705555833 170.150003,0.65 C170.205559,0.594444167 170.322224,0.566666667 170.500003,0.566666667 L171.300003,0.566666667 C171.633338,0.566666667 171.911113,0.666665667 172.133336,0.866666667 C172.35556,1.06666767 172.46667,1.32222067 172.46667,1.63333333 L172.46667,34.9333333 Z M196.300003,0 C197.70001,0 198.788888,0.3722185 199.56667,1.11666667 C200.344452,1.86111483 200.733337,2.81110533 200.733337,3.96666667 L200.733337,17 C200.733337,17.200001 200.588894,17.3 200.300003,17.3 L199.500003,17.3 C199.300002,17.3 199.05556,17.2388895 198.76667,17.1166667 C198.47778,16.9944438 198.333337,16.7444463 198.333337,16.3666667 L198.333337,4 C198.333337,3.533331 198.177783,3.122224 197.86667,2.76666667 C197.555557,2.41110933 197.022229,2.23333333 196.26667,2.23333333 C195.533333,2.23333333 195.011116,2.41110933 194.700003,2.76666667 C194.388891,3.122224 194.233337,3.533331 194.233337,4 L194.233337,34.9333333 C194.233337,35.4000023 194.383335,35.8111093 194.683337,36.1666667 C194.983338,36.522224 195.522222,36.7 196.300003,36.7 C196.700005,36.7 197.033335,36.644445 197.300003,36.5333333 C197.566671,36.4222217 197.77778,36.2833342 197.933337,36.1166667 C198.088893,35.9499992 198.194448,35.7611122 198.250003,35.55 C198.305559,35.3388878 198.333337,35.1333343 198.333337,34.9333333 L198.333337,22.9333333 C198.333337,22.5333313 198.47778,22.2777783 198.76667,22.1666667 C199.05556,22.055555 199.288891,22 199.46667,22 L200.300003,22 C200.588894,22 200.733337,22.088888 200.733337,22.2666667 L200.733337,34.9666667 C200.733337,36.122228 200.344452,37.066663 199.56667,37.8 C198.788888,38.533337 197.70001,38.9 196.300003,38.9 C194.899996,38.9 193.805563,38.533337 193.01667,37.8 C192.227777,37.066663 191.833337,36.122228 191.833337,34.9666667 L191.833337,3.96666667 C191.833337,2.788883 192.227777,1.833337 193.01667,1.1 C193.805563,0.366663 194.899996,0 196.300003,0 Z M222.46667,37.9333333 C222.46667,38.111112 222.438893,38.2277775 222.383337,38.2833333 C222.327781,38.3388892 222.211116,38.3666667 222.033337,38.3666667 L221.200004,38.3666667 C220.888891,38.3666667 220.616671,38.2666677 220.383337,38.0666667 C220.150002,37.8666657 220.033337,37.6111127 220.033337,37.3 L220.033337,20.4666667 L216.000004,20.4666667 L216.000004,37.3 C216.000004,37.6111127 215.888894,37.8666657 215.66667,38.0666667 C215.444447,38.2666677 215.166672,38.3666667 214.833337,38.3666667 L214.033337,38.3666667 C213.855558,38.3666667 213.738893,38.3388892 213.683337,38.2833333 C213.627781,38.2277775 213.600004,38.111112 213.600004,37.9333333 L213.600004,1.03333333 C213.600004,0.855554667 213.627781,0.738889167 213.683337,0.683333333 C213.738893,0.6277775 213.855558,0.6 214.033337,0.6 L214.833337,0.6 C215.611119,0.6 216.000004,1.011107 216.000004,1.83333333 L216.000004,18.3666667 L220.033337,18.3666667 L220.033337,1.66666667 C220.033337,1.355554 220.150002,1.100001 220.383337,0.9 C220.616671,0.699999 220.900002,0.6 221.233337,0.6 L222.033337,0.6 C222.211116,0.6 222.327781,0.6277775 222.383337,0.683333333 C222.438893,0.738889167 222.46667,0.855554667 222.46667,1.03333333 L222.46667,37.9333333 Z" id="get-in-touch" fill="#00A69E"></path>
        </g>
    </g>
</svg>