<?xml version="1.0" encoding="UTF-8" standalone="no"?>
<svg width="99px" height="99px" viewBox="0 0 99 99" version="1.1" xmlns="http://www.w3.org/2000/svg" xmlns:xlink="http://www.w3.org/1999/xlink">
    <!-- Generator: Sketch 50 (54983) - http://www.bohemiancoding.com/sketch -->
    <title>custom</title>
    <desc>Created with Sketch.</desc>
    <defs></defs>
    <g id="Welcome" stroke="none" stroke-width="1" fill="none" fill-rule="evenodd">
        <g id="Desktop-HD-Mockup" transform="translate(-1037.000000, -60.000000)">
            <g id="custom" transform="translate(1037.000000, 60.000000)">
                <rect id="Rectangle-24" stroke="#FFFFFF" transform="translate(49.379572, 49.379572) rotate(-315.000000) translate(-49.379572, -49.379572) " x="15" y="15" width="68.759145" height="68.759145"></rect>
                <g id="X" transform="translate(30.000000, 30.000000)" stroke="#FFFFFF">
                    <path d="M0,0 L39,39" id="Path-20"></path>
                    <path d="M0,39 L39,0" id="Path-20"></path>
                </g>
                <path d="M36.39,51 L36.39,45 L37.2,45 L37.2,51 C37.2,51.333335 37.0833345,51.6166655 36.85,51.85 C36.6166655,52.0833345 36.333335,52.2 36,52.2 L31.2,52.2 C30.866665,52.2 30.5833345,52.0833345 30.35,51.85 C30.1166655,51.6166655 30,51.333335 30,51 L30,50.43 L30.81,50.43 L30.81,51 C30.81,51.1066672 30.8483329,51.198333 30.925,51.275 C31.001667,51.3516671 31.0933328,51.39 31.2,51.39 L36,51.39 C36.1066672,51.39 36.198333,51.3516671 36.275,51.275 C36.3516671,51.198333 36.39,51.1066672 36.39,51 Z" id="J" fill="#00A69E"></path>
                <path d="M69.2,46.2 L69.2,46.49 L68.39,46.49 L68.39,46.2 C68.39,46.0933328 68.3516671,46.001667 68.275,45.925 C68.198333,45.8483329 68.1066672,45.81 68,45.81 L63.2,45.81 C63.0933328,45.81 63.0016671,45.8483329 62.925,45.925 C62.8483329,46.001667 62.81,46.0933328 62.81,46.2 L62.81,51 C62.81,51.1066672 62.8483329,51.198333 62.925,51.275 C63.0016671,51.3516671 63.0933328,51.39 63.2,51.39 L68,51.39 C68.1066672,51.39 68.198333,51.3516671 68.275,51.275 C68.3516671,51.198333 68.39,51.1066672 68.39,51 L68.39,49.22 L66.61,49.22 L66.61,48.4 L69.2,48.4 L69.2,51 C69.2,51.333335 69.0833345,51.6166655 68.85,51.85 C68.6166655,52.0833345 68.333335,52.2 68,52.2 L63.2,52.2 C62.866665,52.2 62.5833345,52.0833345 62.35,51.85 C62.1166655,51.6166655 62,51.333335 62,51 L62,46.2 C62,45.866665 62.1166655,45.5833345 62.35,45.35 C62.5833345,45.1166655 62.866665,45 63.2,45 L68,45 C68.333335,45 68.6166655,45.1166655 68.85,45.35 C69.0833345,45.5833345 69.2,45.866665 69.2,46.2 Z" id="G" fill="#00A69E"></path>
                <g id="browser" transform="translate(45.000000, 60.000000)" fill="#FFFFFF" fill-rule="nonzero">
                    <path d="M8.93340102,0 L1.06644513,0 C0.477531115,0 0,0.484992422 0,1.08310808 L0,8.91673568 C0,9.51485133 0.477531115,9.99984375 1.06644513,10 L8.93340102,10 C9.52231504,10 9.99984616,9.51500758 9.99984616,8.91673568 L10,8.91673568 L10,1.08310808 C10,0.484992422 9.52231504,0 8.93340102,0 Z M1.06644513,0.624990235 L8.93340102,0.624990235 C9.18247412,0.624990235 9.38447101,0.830143279 9.38447101,1.08310808 L9.38462485,1.08310808 L9.38462485,2.03121826 L0.615375148,2.03121826 L0.615375148,1.08310808 C0.615375148,0.830143279 0.81737204,0.624990235 1.06644513,0.624990235 Z M8.93340102,9.37485352 L1.06644513,9.37485352 C0.81737204,9.37485352 0.615375148,9.16985672 0.615375148,8.91673568 L0.615375148,2.34371338 L9.38462485,2.34371338 L9.38462485,8.91673568 C9.38462485,9.16985672 9.18262796,9.37485352 8.93340102,9.37485352 Z" id="Shape"></path>
                    <path d="M1.2962963,1.66666667 L1.48148148,1.66666667 C1.5837037,1.66666667 1.66666667,1.5425 1.66666667,1.38888889 C1.66666667,1.23527778 1.5837037,1.11111111 1.48148148,1.11111111 L1.2962963,1.11111111 C1.19388889,1.11111111 1.11111111,1.23527778 1.11111111,1.38888889 C1.11111111,1.5425 1.19388889,1.66666667 1.2962963,1.66666667 Z" id="Shape"></path>
                    <path d="M2.40740741,1.66666667 L2.59259259,1.66666667 C2.69481481,1.66666667 2.77777778,1.5425 2.77777778,1.38888889 C2.77777778,1.23527778 2.69481481,1.11111111 2.59259259,1.11111111 L2.40740741,1.11111111 C2.305,1.11111111 2.22222222,1.23527778 2.22222222,1.38888889 C2.22222222,1.5425 2.305,1.66666667 2.40740741,1.66666667 Z" id="Shape"></path>
                    <path d="M3.51851852,1.66666667 L3.7037037,1.66666667 C3.80592593,1.66666667 3.88888889,1.5425 3.88888889,1.38888889 C3.88888889,1.23527778 3.80592593,1.11111111 3.7037037,1.11111111 L3.51851852,1.11111111 C3.41611111,1.11111111 3.33333333,1.23527778 3.33333333,1.38888889 C3.33333333,1.5425 3.41611111,1.66666667 3.51851852,1.66666667 Z" id="Shape"></path>
                    <path d="M5.90894312,4.49447528 C5.83968464,4.43653863 5.71410389,4.42760447 5.62932195,4.47457648 C5.54394296,4.52154848 5.53080773,4.60682907 5.60006622,4.66503645 L7.32277144,6.11101614 L5.60006622,7.55726655 C5.53080773,7.61547394 5.54374395,7.70061915 5.62932195,7.74759116 C5.6661404,7.76803143 5.71032254,7.77777778 5.75450467,7.77777778 C5.81241909,7.77777778 5.86973645,7.76058629 5.90894312,7.72782772 L7.73314785,6.19643209 C7.79265442,6.14675276 7.79265442,6.07555024 7.73314785,6.02587092 L5.90894312,4.49447528 Z" id="Shape"></path>
                    <path d="M2.57560979,4.49447528 C2.50635131,4.43653863 2.38077056,4.42760447 2.29598862,4.47457648 C2.21060963,4.52154848 2.1974744,4.60682907 2.26673288,4.66503645 L3.98943811,6.11101614 L2.26673288,7.55726655 C2.1974744,7.61547394 2.21041061,7.70061915 2.29598862,7.74759116 C2.33280707,7.76803143 2.3769892,7.77777778 2.42117134,7.77777778 C2.47908576,7.77777778 2.53640312,7.76058629 2.57560979,7.72782772 L4.39981452,6.19643209 C4.45932109,6.14675276 4.45932109,6.07555024 4.39981452,6.02587092 L2.57560979,4.49447528 Z" id="Shape" transform="translate(3.333333, 6.111111) scale(-1, 1) translate(-3.333333, -6.111111) "></path>
                </g>
                <path d="M42.78,28.8 L47.63,28.8 C47.963335,28.8 48.2483321,28.9183322 48.485,29.155 C48.7216679,29.3916678 48.84,29.6799983 48.84,30.02 L48.84,34.79 C48.84,35.123335 48.7216679,35.4083321 48.485,35.645 C48.2483321,35.8816678 47.963335,36 47.63,36 L42.78,36 C42.4399983,36 42.1533345,35.8816678 41.92,35.645 C41.6866655,35.4083321 41.57,35.123335 41.57,34.79 L41.57,30.02 C41.57,29.6799983 41.6866655,29.3916678 41.92,29.155 C42.1533345,28.9183322 42.4399983,28.8 42.78,28.8 Z M47.91,29.63 L42.78,29.63 C42.6733328,29.63 42.5816671,29.6683329 42.505,29.745 C42.4283329,29.8216671 42.39,29.9133328 42.39,30.02 L42.39,34.19 L47.91,29.63 Z M42.49,35.18 L47.63,35.18 C47.7366672,35.18 47.828333,35.141667 47.905,35.065 C47.981667,34.988333 48.02,34.8966672 48.02,34.79 L48.02,30.62 L42.49,35.18 Z M51.12,28.79 L55.97,28.79 C56.303335,28.79 56.5883321,28.9083321 56.825,29.145 C57.0616678,29.3816678 57.18,29.6699983 57.18,30.01 L57.18,31.7 C57.18,32.033335 57.0616678,32.3183322 56.825,32.555 C56.5883321,32.7916678 56.303335,32.91 55.97,32.91 L51.12,32.91 C51.0133328,32.91 50.921667,32.948333 50.845,33.025 C50.768333,33.1016671 50.73,33.1933328 50.73,33.3 L50.73,34.79 C50.73,34.8966672 50.768333,34.988333 50.845,35.065 C50.921667,35.141667 51.0133328,35.18 51.12,35.18 L57.18,35.18 L57.18,36 L49.91,36 L49.91,33.3 C49.91,32.9599983 50.0266655,32.6733345 50.26,32.44 C50.4933345,32.2066655 50.7799983,32.09 51.12,32.09 L55.97,32.09 C56.0766672,32.09 56.1683329,32.051667 56.245,31.975 C56.3216671,31.898333 56.36,31.8066672 56.36,31.7 L56.36,30.01 C56.36,29.9033328 56.3216671,29.8116671 56.245,29.735 C56.1683329,29.658333 56.0766672,29.62 55.97,29.62 L51.12,29.62 C51.0133328,29.62 50.921667,29.658333 50.845,29.735 C50.768333,29.8116671 50.73,29.9033328 50.73,30.01 L50.73,30.29 L49.91,30.29 L49.91,30.01 C49.91,29.6699983 50.0266655,29.3816678 50.26,29.145 C50.4933345,28.9083321 50.7799983,28.79 51.12,28.79 Z" id="02" fill="#00A69E"></path>
            </g>
        </g>
    </g>
</svg>