<?xml version="1.0" encoding="UTF-8" standalone="no"?>
<svg width="600px" height="602px" viewBox="0 0 600 602" version="1.1" xmlns="http://www.w3.org/2000/svg" xmlns:xlink="http://www.w3.org/1999/xlink">
    <!-- Generator: Sketch 49.3 (51167) - http://www.bohemiancoding.com/sketch -->
    <title>Logo for site Copy</title>
    <desc>Created with Sketch.</desc>
    <defs></defs>
    <g id="Page-1" stroke="none" stroke-width="1" fill="none" fill-rule="evenodd">
        <g id="Logo-for-site-Copy">
            <path d="M102.186667,497.638554 C104.480011,497.638554 106.559991,497.985539 108.426667,498.679518 C110.293343,499.373497 111.893327,500.371078 113.226667,501.672289 C114.560007,502.9735 115.586663,504.549388 116.306667,506.4 C117.02667,508.250612 117.386667,510.303603 117.386667,512.559036 L117.386667,585.079518 C117.386667,589.706047 116.040013,593.349384 113.346667,596.009639 C110.65332,598.669893 106.880024,600 102.026667,600 L88.2666667,600 C87.7333307,600 87.3333347,599.826508 87.0666667,599.479518 C86.7999987,599.132528 86.6666667,598.698798 86.6666667,598.178313 L86.6666667,499.460241 C86.6666667,498.939756 86.7999987,498.506026 87.0666667,498.159036 C87.3333347,497.812046 87.7333307,497.638554 88.2666667,497.638554 L102.186667,497.638554 Z M102.026667,590.284337 C103.626675,590.284337 104.799996,589.792776 105.546667,588.809639 C106.293337,587.826501 106.666667,586.58314 106.666667,585.079518 L106.666667,512.559036 C106.666667,511.055414 106.30667,509.812053 105.586667,508.828916 C104.866663,507.845778 103.680008,507.354217 102.026667,507.354217 L97.3866667,507.354217 L97.3866667,590.284337 L102.026667,590.284337 Z M180.346667,497.638554 C180.826669,497.638554 181.226665,497.783131 181.546667,498.072289 C181.866668,498.361447 182.026667,498.795178 182.026667,499.373494 L182.026667,502.322892 C182.026667,503.826514 181.653337,505.040959 180.906667,505.966265 C180.159996,506.891571 179.173339,507.354217 177.946667,507.354217 L168.106667,507.354217 L168.106667,544.568675 L178.746667,544.568675 C179.226669,544.568675 179.626665,544.713252 179.946667,545.00241 C180.266668,545.291568 180.426667,545.725298 180.426667,546.303614 L180.426667,549.253012 C180.426667,550.756634 180.053337,551.97108 179.306667,552.896386 C178.559996,553.821691 177.573339,554.284337 176.346667,554.284337 L168.106667,554.284337 L168.106667,590.284337 L177.946667,590.284337 C179.173339,590.284337 180.159996,590.746983 180.906667,591.672289 C181.653337,592.597595 182.026667,593.812041 182.026667,595.315663 L182.026667,598.26506 C182.026667,598.843376 181.866668,599.277107 181.546667,599.566265 C181.226665,599.855423 180.826669,600 180.346667,600 L158.986667,600 C158.453331,600 158.053335,599.826508 157.786667,599.479518 C157.519999,599.132528 157.386667,598.698798 157.386667,598.178313 L157.386667,499.460241 C157.386667,498.939756 157.519999,498.506026 157.786667,498.159036 C158.053335,497.812046 158.453331,497.638554 158.986667,497.638554 L180.346667,497.638554 Z M237.706667,497.638554 C239.68001,497.638554 240.999997,498.057827 241.666667,498.896386 C242.333337,499.734944 242.586667,500.81927 242.426667,502.149398 L229.386667,590.284337 L239.546667,590.284337 C240.773339,590.284337 241.759996,590.746983 242.506667,591.672289 C243.253337,592.597595 243.626667,593.812041 243.626667,595.315663 L243.626667,598.26506 C243.626667,598.843376 243.466668,599.277107 243.146667,599.566265 C242.826665,599.855423 242.426669,600 241.946667,600 L219.786667,600 C219.253331,600 218.840001,599.826508 218.546667,599.479518 C218.253332,599.132528 218.133333,598.698798 218.186667,598.178313 L230.826667,507.354217 L223.226667,507.354217 C221.999994,507.354217 221.013337,506.891571 220.266667,505.966265 C219.519996,505.040959 219.146667,503.826514 219.146667,502.322892 L219.146667,499.373494 C219.146667,498.795178 219.306665,498.34699 219.626667,498.028916 C219.946668,497.710842 220.346664,497.580723 220.826667,497.638554 L237.706667,497.638554 Z M283.946667,502.062651 C283.946667,500.732523 284.373329,499.662655 285.226667,498.853012 C286.080004,498.043369 287.199993,497.638554 288.586667,497.638554 L293.066667,497.638554 C293.600003,497.638554 293.999999,497.812046 294.266667,498.159036 C294.533335,498.506026 294.666667,498.939756 294.666667,499.460241 L294.666667,596.877108 C294.666667,597.744583 294.386669,598.481925 293.826667,599.089157 C293.266664,599.696389 292.586671,600 291.786667,600 L286.826667,600 C286.026663,600 285.346669,599.696389 284.786667,599.089157 C284.226664,598.481925 283.946667,597.744583 283.946667,596.877108 L283.946667,502.062651 Z M363.786667,552.896386 C364.320003,552.896386 364.719999,553.069878 364.986667,553.416867 C365.253335,553.763857 365.386667,554.197588 365.386667,554.718072 L365.386667,586.46747 C365.386667,591.093999 364.040013,594.737336 361.346667,597.39759 C358.65332,600.057845 354.880024,601.387952 350.026667,601.387952 C347.679988,601.387952 345.573343,601.040967 343.706667,600.346988 C341.839991,599.653009 340.226673,598.655428 338.866667,597.354217 C337.50666,596.053006 336.46667,594.491575 335.746667,592.66988 C335.026663,590.848184 334.666667,588.780734 334.666667,586.46747 L334.666667,511.171084 C334.666667,506.544555 336.01332,502.901218 338.706667,500.240964 C341.400013,497.58071 345.173309,496.250602 350.026667,496.250602 C352.320011,496.250602 354.413324,496.597587 356.306667,497.291566 C358.200009,497.985546 359.82666,498.983126 361.186667,500.284337 C362.546673,501.585549 363.586663,503.146979 364.306667,504.968675 C365.02667,506.790371 365.386667,508.85782 365.386667,511.171084 L365.386667,544.048193 C365.386667,544.568677 365.253335,545.002408 364.986667,545.349398 C364.719999,545.696387 364.320003,545.86988 363.786667,545.86988 L359.306667,545.86988 C357.759992,545.86988 356.600004,545.392776 355.826667,544.438554 C355.053329,543.484333 354.666667,542.255429 354.666667,540.751807 L354.666667,511.171084 C354.666667,509.609631 354.293337,508.351812 353.546667,507.39759 C352.799996,506.443369 351.626675,505.966265 350.026667,505.966265 C348.479992,505.966265 347.320004,506.443369 346.546667,507.39759 C345.773329,508.351812 345.386667,509.609631 345.386667,511.171084 L345.386667,586.46747 C345.386667,588.028923 345.759996,589.286742 346.506667,590.240964 C347.253337,591.195185 348.426659,591.672289 350.026667,591.672289 C351.573341,591.672289 352.733329,591.195185 353.506667,590.240964 C354.280004,589.286742 354.666667,588.028923 354.666667,586.46747 L354.666667,562.612048 C351.466651,562.612048 349.866667,560.934957 349.866667,557.580723 L349.866667,554.631325 C349.866667,554.053009 350.026665,553.619279 350.346667,553.33012 C350.666668,553.040962 351.066664,552.896386 351.546667,552.896386 L363.786667,552.896386 Z M434.506667,497.638554 C435.040003,497.638554 435.439999,497.812046 435.706667,498.159036 C435.973335,498.506026 436.106667,498.939756 436.106667,499.460241 L436.106667,598.178313 C436.106667,598.698798 435.973335,599.132528 435.706667,599.479518 C435.439999,599.826508 435.040003,600 434.506667,600 L430.026667,600 C428.639993,600 427.573337,599.638558 426.826667,598.915663 C426.079996,598.192767 425.626667,597.224102 425.466667,596.009639 C425.466667,595.315659 425.266669,593.927721 424.866667,591.845783 C424.466665,589.763845 423.960003,587.262665 423.346667,584.342169 C422.73333,581.421672 422.053337,578.212066 421.306667,574.713253 C420.559996,571.21444 419.813337,567.643392 419.066667,564 C418.319996,560.356608 417.613337,556.771102 416.946667,553.243373 C416.279997,549.715645 415.733335,546.506039 415.306667,543.614458 L416.106667,594.881928 C416.16,596.38555 415.786671,597.614453 414.986667,598.568675 C414.186663,599.522896 413.013341,600 411.466667,600 L406.986667,600 C406.453331,600 406.053335,599.826508 405.786667,599.479518 C405.519999,599.132528 405.386667,598.698798 405.386667,598.178313 L405.386667,499.460241 C405.386667,498.939756 405.519999,498.506026 405.786667,498.159036 C406.053335,497.812046 406.453331,497.638554 406.986667,497.638554 L411.466667,497.638554 C412.800007,497.638554 413.879996,498.028912 414.706667,498.809639 C415.533337,499.590365 415.999999,500.616861 416.106667,501.889157 C416.213334,502.814462 416.453331,504.477096 416.826667,506.877108 C417.200002,509.27712 417.679997,512.096369 418.266667,515.33494 C418.853336,518.57351 419.49333,522.101186 420.186667,525.918072 C420.880003,529.734959 421.586663,533.53733 422.306667,537.325301 C423.02667,541.113272 423.719997,544.713236 424.386667,548.125301 C425.053337,551.537366 425.653331,554.486735 426.186667,556.973494 L425.386667,502.062651 C425.386667,500.732523 425.813329,499.662655 426.666667,498.853012 C427.520004,498.043369 428.639993,497.638554 430.026667,497.638554 L434.506667,497.638554 Z M500.746667,533.46506 C499.199992,533.46506 498.040004,532.987957 497.266667,532.033735 C496.493329,531.079513 496.106667,529.85061 496.106667,528.346988 L496.106667,511.171084 C496.106667,509.609631 495.720004,508.351812 494.946667,507.39759 C494.173329,506.443369 493.013341,505.966265 491.466667,505.966265 C489.866659,505.966265 488.693337,506.443369 487.946667,507.39759 C487.199996,508.351812 486.826667,509.609631 486.826667,511.171084 C486.826667,515.855445 487.106664,519.903597 487.666667,523.315663 C488.226669,526.727728 488.986662,529.734927 489.946667,532.337349 C490.906671,534.939772 491.986661,537.281917 493.186667,539.363855 C494.386673,541.445794 495.599994,543.5277 496.826667,545.609639 C498.053339,547.691577 499.266661,549.903603 500.466667,552.245783 C501.666673,554.587964 502.746662,557.334924 503.706667,560.486747 C504.666671,563.63857 505.426664,567.310822 505.986667,571.503614 C506.546669,575.696407 506.826667,580.684308 506.826667,586.46747 C506.826667,588.780734 506.46667,590.848184 505.746667,592.66988 C505.026663,594.491575 503.986673,596.053006 502.626667,597.354217 C501.26666,598.655428 499.640009,599.653009 497.746667,600.346988 C495.853324,601.040967 493.760011,601.387952 491.466667,601.387952 C486.613309,601.387952 482.840013,600.057845 480.146667,597.39759 C477.45332,594.737336 476.106667,591.093999 476.106667,586.46747 L476.106667,565.127711 C476.106667,564.607226 476.239999,564.173496 476.506667,563.826506 C476.773335,563.479516 477.173331,563.306024 477.706667,563.306024 L482.186667,563.306024 C483.733341,563.306024 484.893329,563.783128 485.666667,564.737349 C486.440004,565.691571 486.826667,566.920474 486.826667,568.424096 L486.826667,586.46747 C486.826667,588.028923 487.213329,589.286742 487.986667,590.240964 C488.760004,591.195185 489.919992,591.672289 491.466667,591.672289 C493.066675,591.672289 494.239996,591.195185 494.986667,590.240964 C495.733337,589.286742 496.106667,588.028923 496.106667,586.46747 C496.106667,580.915635 495.826669,576.173514 495.266667,572.240964 C494.706664,568.308414 493.946671,564.910858 492.986667,562.048193 C492.026662,559.185528 490.946673,556.698806 489.746667,554.587952 C488.546661,552.477098 487.333339,550.453022 486.106667,548.515663 C484.879994,546.578304 483.666673,544.568685 482.466667,542.486747 C481.266661,540.404809 480.186671,537.947002 479.226667,535.113253 C478.266662,532.279504 477.506669,528.954236 476.946667,525.137349 C476.386664,521.320463 476.106667,516.665088 476.106667,511.171084 C476.106667,508.85782 476.466663,506.790371 477.186667,504.968675 C477.90667,503.146979 478.94666,501.585549 480.306667,500.284337 C481.666673,498.983126 483.279991,497.985546 485.146667,497.291566 C487.013343,496.597587 489.119988,496.250602 491.466667,496.250602 C496.320024,496.250602 500.09332,497.58071 502.786667,500.240964 C505.480013,502.901218 506.826667,506.544555 506.826667,511.171084 L506.826667,531.643373 C506.826667,532.163858 506.693335,532.597589 506.426667,532.944578 C506.159999,533.291568 505.760003,533.46506 505.226667,533.46506 L500.746667,533.46506 Z" id="dezigns" fill="#00DED4"></path>
            <path d="M225.994593,115.248268 L225.924072,115.247357 L226.073986,72.2891566 L292.022332,115.662651 L292.590739,115.662651 L292.590739,116.036486 L292.702279,116.109845 L292.590739,116.108404 L292.590739,151.807229 L292.590739,332.53012 L292.590739,368.674699 L292.36213,368.674699 L292.524116,426.506024 L247.937367,389.314451 L220.325749,369.354245 L60.3257487,253.691595 L38.6224427,238.002458 L0,212.375429 L26.0215459,193.107608 L25.9240723,192.954938 L53.3304787,172.381084 L139.997145,107.320843 L167.403552,86.746988 L167.650447,87.1336918 L167.650447,174.4841 L120.207795,210.099067 L225.924072,286.520472 L225.924072,151.807229 L225.924072,115.662651 L225.990819,115.662651 L225.994593,115.248268 Z M292.479463,93.6943657 L226.666667,46.8471829 L292.702279,0 L292.479463,93.6943657 Z" id="Combined-Shape-Copy-4" fill="#FFFFFF" fill-rule="nonzero"></path>
            <path d="M257.222222,359.939759 L226.666667,303.614458 L226.666667,72.2891566 L293.333333,115.662651 C293.333333,115.662651 293.333333,219.277108 293.333333,426.506024 L257.222222,359.939759 L293.333333,397.590361 L293.333333,426.506024 L6.66666667,216.86747 L9.77777778,216.86747 L0,209.638554 L9.77777778,216.86747 Z M306.666667,368.674699 L306.666667,332.53012 L306.666667,151.807229 L306.666667,115.662651 L306.666667,72.1171581 L306.666667,36.1445783 L306.723776,36.1546211 L306.723776,0 L372.149578,49.5994146 L373.078355,50.088475 L373.078548,50.303668 L373.279167,50.4557576 L373.0788,50.5859286 L373.098318,72.4184859 L373.29496,72.2891566 L373.444874,115.247357 L373.313875,115.249049 L373.317641,115.662651 L373.333333,115.662651 L373.333333,117.385772 L373.385755,123.142106 L373.333333,123.142064 L373.333333,151.807229 L373.333333,285.881942 L479.495768,209.138013 L433.333333,174.4841 L433.333333,87.1336918 L433.580229,86.746988 L460.986635,107.320843 L547.653302,172.381084 L568.567146,188.081003 L568.699137,187.951807 L600,209.638554 L306.666667,426.506024 L306.666667,412.048193 L306.666667,368.674699 Z" id="Combined-Shape-Copy-5" fill="#FFFFFF" fill-rule="nonzero"></path>
        </g>
    </g>
</svg>