<?xml version="1.0" encoding="UTF-8" standalone="no"?>
<svg width="99px" height="99px" viewBox="0 0 99 99" version="1.1" xmlns="http://www.w3.org/2000/svg" xmlns:xlink="http://www.w3.org/1999/xlink">
    <!-- Generator: Sketch 50 (54983) - http://www.bohemiancoding.com/sketch -->
    <title>pers</title>
    <desc>Created with Sketch.</desc>
    <defs></defs>
    <g id="Welcome" stroke="none" stroke-width="1" fill="none" fill-rule="evenodd">
        <g id="Desktop-HD-Mockup" transform="translate(-797.000000, -60.000000)">
            <g id="pers" transform="translate(797.000000, 60.000000)">
                <rect id="Rectangle-24" stroke="#FFFFFF" transform="translate(49.379572, 49.379572) rotate(-315.000000) translate(-49.379572, -49.379572) " x="15" y="15" width="68.759145" height="68.759145"></rect>
                <g id="X" transform="translate(30.000000, 30.000000)" stroke="#FFFFFF">
                    <path d="M0,0 L39,39" id="Path-20"></path>
                    <path d="M0,39 L39,0" id="Path-20"></path>
                </g>
                <path d="M35.39,51 L35.39,45 L36.2,45 L36.2,51 C36.2,51.333335 36.0833345,51.6166655 35.85,51.85 C35.6166655,52.0833345 35.333335,52.2 35,52.2 L30.2,52.2 C29.866665,52.2 29.5833345,52.0833345 29.35,51.85 C29.1166655,51.6166655 29,51.333335 29,51 L29,50.43 L29.81,50.43 L29.81,51 C29.81,51.1066672 29.8483329,51.198333 29.925,51.275 C30.001667,51.3516671 30.0933328,51.39 30.2,51.39 L35,51.39 C35.1066672,51.39 35.198333,51.3516671 35.275,51.275 C35.3516671,51.198333 35.39,51.1066672 35.39,51 Z" id="J" fill="#00A69E"></path>
                <path d="M70.2,46.2 L70.2,46.49 L69.39,46.49 L69.39,46.2 C69.39,46.0933328 69.3516671,46.001667 69.275,45.925 C69.198333,45.8483329 69.1066672,45.81 69,45.81 L64.2,45.81 C64.0933328,45.81 64.0016671,45.8483329 63.925,45.925 C63.8483329,46.001667 63.81,46.0933328 63.81,46.2 L63.81,51 C63.81,51.1066672 63.8483329,51.198333 63.925,51.275 C64.0016671,51.3516671 64.0933328,51.39 64.2,51.39 L69,51.39 C69.1066672,51.39 69.198333,51.3516671 69.275,51.275 C69.3516671,51.198333 69.39,51.1066672 69.39,51 L69.39,49.22 L67.61,49.22 L67.61,48.4 L70.2,48.4 L70.2,51 C70.2,51.333335 70.0833345,51.6166655 69.85,51.85 C69.6166655,52.0833345 69.333335,52.2 69,52.2 L64.2,52.2 C63.866665,52.2 63.5833345,52.0833345 63.35,51.85 C63.1166655,51.6166655 63,51.333335 63,51 L63,46.2 C63,45.866665 63.1166655,45.5833345 63.35,45.35 C63.5833345,45.1166655 63.866665,45 64.2,45 L69,45 C69.333335,45 69.6166655,45.1166655 69.85,45.35 C70.0833345,45.5833345 70.2,45.866665 70.2,46.2 Z" id="G" fill="#00A69E"></path>
                <g id="user" transform="translate(46.000000, 59.000000)" fill="#FFFFFF" fill-rule="nonzero">
                    <path d="M4,2.18226556 C4,2.08165497 3.91834503,2 3.81773444,2 C2.81545612,2 2,2.81545612 2,3.81773444 C2,3.91852729 2.08147271,4 2.18226556,4 C2.28287615,4 2.36453112,3.91852729 2.36453112,3.81773444 C2.36453112,3.01649503 3.01649503,2.36453112 3.81773444,2.36453112 C3.91834503,2.36453112 4,2.28305842 4,2.18226556 Z" id="Shape"></path>
                    <path d="M2.0725,3.06981132 C2.02525,3.11761006 2,3.18301887 2,3.24842767 C2,3.31383648 2.02525,3.37949686 2.0725,3.42704403 C2.12,3.47484277 2.1825,3.5 2.25,3.5 C2.31525,3.5 2.38025,3.47509434 2.425,3.42704403 C2.47275,3.37949686 2.5,3.31660377 2.5,3.24842767 C2.5,3.18301887 2.4725,3.11761006 2.425,3.06981132 C2.3325,2.97672956 2.165,2.97672956 2.0725,3.06981132 Z" id="Shape"></path>
                    <path d="M5.59332309,5.99792379 C6.30187269,5.03888034 6.74251547,3.60992696 6.74251547,2.69918893 C6.74251547,1.21075744 5.51824939,0 4.01378566,0 C2.50915584,0 1.28522194,1.21075744 1.28522194,2.69918893 C1.28522194,3.61107709 1.72686127,5.04233073 2.43673961,6.00137418 C0.984096666,6.62375838 0,8.08113639 0,9.68556663 C0,10.9053608 3.0617448,11 4,11 C4.93808911,11 8,10.9053608 8,9.68589523 C8,8.08639412 7.02836025,6.62868751 5.59332309,5.99792379 Z M4.01378566,0.657216687 C5.15201594,0.657216687 6.07814641,1.57321245 6.07814641,2.69918893 C6.07814641,3.97468222 5.01681684,6.34674155 4.01378566,6.34674155 C3.01058838,6.34674155 1.949591,3.97484652 1.949591,2.69918893 C1.949591,1.57321245 2.87555537,0.657216687 4.01378566,0.657216687 Z M4,10.3427833 C1.68998879,10.3427833 0.664369057,9.86679413 0.664369057,9.68556663 C0.664369057,8.29062421 1.55030519,7.02696082 2.84200473,6.54489238 C3.1926255,6.86775008 3.59390441,7.03681907 4.01378566,7.03681907 C4.42403355,7.03681907 4.82315326,6.86446399 5.17892289,6.53585565 C6.45816551,7.02400335 7.33563094,8.29128142 7.33563094,9.68556663 C7.33563094,9.86662982 6.30984512,10.3427833 4,10.3427833 Z" id="Shape"></path>
                </g>
                <path d="M45.21,29 L50.06,29 C50.393335,29 50.6783321,29.1183322 50.915,29.355 C51.1516678,29.5916679 51.27,29.8799983 51.27,30.22 L51.27,34.99 C51.27,35.323335 51.1516678,35.6083322 50.915,35.845 C50.6783321,36.0816679 50.393335,36.2 50.06,36.2 L45.21,36.2 C44.8699983,36.2 44.5833345,36.0816679 44.35,35.845 C44.1166655,35.6083322 44,35.323335 44,34.99 L44,30.22 C44,29.8799983 44.1166655,29.5916679 44.35,29.355 C44.5833345,29.1183322 44.8699983,29 45.21,29 Z M50.34,29.83 L45.21,29.83 C45.1033328,29.83 45.011667,29.868333 44.935,29.945 C44.8583329,30.0216671 44.82,30.1133328 44.82,30.22 L44.82,34.39 L50.34,29.83 Z M44.92,35.38 L50.06,35.38 C50.1666672,35.38 50.2583329,35.341667 50.335,35.265 C50.4116671,35.188333 50.45,35.0966672 50.45,34.99 L50.45,30.82 L44.92,35.38 Z M51.78,31.25 L53.67,29 L54.79,29 L54.79,36.2 L53.96,36.2 L53.96,29.92 C53.8666662,30.0400006 53.681668,30.2633317 53.405,30.59 C53.1283319,30.9166683 52.9433338,31.1366661 52.85,31.25 L51.78,31.25 Z" id="01" fill="#00A69E"></path>
            </g>
        </g>
    </g>
</svg>