<?xml version="1.0" encoding="UTF-8" standalone="no"?>
<svg width="295px" height="62px" viewBox="0 0 295 62" version="1.1" xmlns="http://www.w3.org/2000/svg" xmlns:xlink="http://www.w3.org/1999/xlink">
    <!-- Generator: Sketch 50 (54983) - http://www.bohemiancoding.com/sketch -->
    <title>Group 6</title>
    <desc>Created with Sketch.</desc>
    <defs></defs>
    <g id="Welcome" stroke="none" stroke-width="1" fill="none" fill-rule="evenodd">
        <g id="Group-6">
            <path d="M8.86666667,37.9333333 C8.86666667,38.111112 8.83888917,38.2277775 8.78333333,38.2833333 C8.7277775,38.3388892 8.611112,38.3666667 8.43333333,38.3666667 L7.63333333,38.3666667 C7.32222067,38.3666667 7.05000117,38.2666677 6.81666667,38.0666667 C6.58333217,37.8666657 6.46666667,37.6111127 6.46666667,37.3 L6.46666667,23.6333333 C6.46666667,23.1666643 6.32222367,22.7555573 6.03333333,22.4 C5.744443,22.0444427 5.211115,21.8666667 4.43333333,21.8666667 L2.4,21.8666667 L2.4,37.3 C2.4,37.6111127 2.2833345,37.8666657 2.05,38.0666667 C1.8166655,38.2666677 1.544446,38.3666667 1.23333333,38.3666667 L0.4,38.3666667 C0.222221333,38.3666667 0.111111333,38.3388892 0.0666666667,38.2833333 C0.022222,38.2277775 0,38.111112 0,37.9333333 L0,1 C0,0.822221333 0.0277775,0.705555833 0.0833333333,0.65 C0.138889167,0.594444167 0.255554667,0.566666667 0.433333333,0.566666667 L4.43333333,0.566666667 C5.30000433,0.566666667 6.02221933,0.683332167 6.6,0.916666667 C7.17778067,1.15000117 7.63333167,1.45555367 7.96666667,1.83333333 C8.30000167,2.211113 8.53333267,2.6388865 8.66666667,3.11666667 C8.80000067,3.59444683 8.86666667,4.07777533 8.86666667,4.56666667 L8.86666667,16.9 C8.86666667,17.7444487 8.76666767,18.4999967 8.56666667,19.1666667 C8.36666567,19.8333367 7.98889167,20.3666647 7.43333333,20.7666667 C7.98889167,21.1000017 8.36666567,21.5111087 8.56666667,22 C8.76666767,22.4888913 8.86666667,23.0333303 8.86666667,23.6333333 L8.86666667,37.9333333 Z M2.4,2.76666667 L2.4,19.6666667 L4.63333333,19.6666667 C5.03333533,19.6666667 5.35555433,19.5833342 5.6,19.4166667 C5.84444567,19.2499992 6.03333267,19.0333347 6.16666667,18.7666667 C6.30000067,18.4999987 6.38333317,18.1944462 6.41666667,17.85 C6.45000017,17.5055538 6.46666667,17.1666683 6.46666667,16.8333333 L6.46666667,4.56666667 C6.46666667,4.07777533 6.32222367,3.65555733 6.03333333,3.3 C5.744443,2.94444267 5.211115,2.76666667 4.43333333,2.76666667 L2.4,2.76666667 Z M22.3666669,38.3666667 C22.0333319,38.3666667 21.8333339,38.3388892 21.7666669,38.2833333 C21.6999999,38.2277775 21.6666669,38.08889 21.6666669,37.8666667 L21.6666669,1.03333333 C21.6666669,0.788887667 21.7222219,0.655555667 21.8333336,0.633333333 C21.9444452,0.611111 22.1888872,0.6 22.5666669,0.6 L28.6333336,0.6 C28.8777792,0.6 29.0000002,0.788887 29.0000002,1.16666667 L29.0000002,1.53333333 C29.0000002,2.377782 28.5888932,2.8 27.7666669,2.8 L24.0666669,2.8 L24.0666669,18.6333333 L28.3333336,18.6333333 C28.5777792,18.6333333 28.7000002,18.8222203 28.7000002,19.2 L28.7000002,19.5666667 C28.7000002,19.9000017 28.6333342,20.1499992 28.5000002,20.3166667 C28.3666662,20.4833342 28.1888902,20.6055552 27.9666669,20.6833333 C27.7444436,20.7611115 27.5055571,20.8055555 27.2500002,20.8166667 C26.9944434,20.8277778 26.7333349,20.8333333 26.4666669,20.8333333 L24.0666669,20.8333333 L24.0666669,36.1666667 L27.7666669,36.1666667 C28.5888932,36.1666667 29.0000002,36.5888847 29.0000002,37.4333333 L29.0000002,37.8 C29.0000002,38.1777797 28.8777792,38.3666667 28.6333336,38.3666667 L22.3666669,38.3666667 Z M45.4333338,0 C46.8333408,2.27373675e-13 47.9222188,0.3722185 48.7000004,1.11666667 C49.4777821,1.86111483 49.8666671,2.81110533 49.8666671,3.96666667 L49.8666671,17 C49.8666671,17.200001 49.7222241,17.3 49.4333338,17.3 L48.6333338,17.3 C48.4333328,17.3 48.1888908,17.2388895 47.9000004,17.1166667 C47.6111101,16.9944438 47.4666671,16.7444463 47.4666671,16.3666667 L47.4666671,4 C47.4666671,3.533331 47.3111131,3.122224 47.0000004,2.76666667 C46.6888878,2.41110933 46.1555598,2.23333333 45.4000004,2.23333333 C44.6666634,2.23333333 44.1444464,2.41110933 43.8333338,2.76666667 C43.5222211,3.122224 43.3666671,3.533331 43.3666671,4 L43.3666671,34.9333333 C43.3666671,35.4000023 43.5166656,35.8111093 43.8166671,36.1666667 C44.1166686,36.522224 44.6555521,36.7 45.4333338,36.7 C45.8333358,36.7 46.1666658,36.644445 46.4333338,36.5333333 C46.7000018,36.4222217 46.9111108,36.2833342 47.0666671,36.1166667 C47.2222234,35.9499992 47.3277779,35.7611122 47.3833338,35.55 C47.4388896,35.3388878 47.4666671,35.1333343 47.4666671,34.9333333 L47.4666671,22.9333333 C47.4666671,22.5333313 47.6111101,22.2777783 47.9000004,22.1666667 C48.1888908,22.055555 48.4222218,22 48.6000004,22 L49.4333338,22 C49.7222241,22 49.8666671,22.088888 49.8666671,22.2666667 L49.8666671,34.9666667 C49.8666671,36.122228 49.4777821,37.066663 48.7000004,37.8 C47.9222188,38.533337 46.8333408,38.9 45.4333338,38.9 C44.0333268,38.9 42.9388933,38.533337 42.1500004,37.8 C41.3611076,37.066663 40.9666671,36.122228 40.9666671,34.9666667 L40.9666671,3.96666667 C40.9666671,2.788883 41.3611076,1.833337 42.1500004,1.1 C42.9388933,0.366663 44.0333268,2.27373675e-13 45.4333338,0 Z M63.433334,38.3666667 C63.099999,38.3666667 62.900001,38.3388892 62.833334,38.2833333 C62.766667,38.2277775 62.733334,38.08889 62.733334,37.8666667 L62.733334,1.03333333 C62.733334,0.788887667 62.788889,0.655555667 62.9000007,0.633333333 C63.0111123,0.611111 63.2555543,0.6 63.633334,0.6 L69.7000007,0.6 C69.9444463,0.6 70.0666673,0.788887 70.0666673,1.16666667 L70.0666673,1.53333333 C70.0666673,2.377782 69.6555603,2.8 68.833334,2.8 L65.133334,2.8 L65.133334,18.6333333 L69.4000007,18.6333333 C69.6444463,18.6333333 69.7666673,18.8222203 69.7666673,19.2 L69.7666673,19.5666667 C69.7666673,19.9000017 69.7000013,20.1499992 69.5666673,20.3166667 C69.4333333,20.4833342 69.2555573,20.6055552 69.033334,20.6833333 C68.8111107,20.7611115 68.5722242,20.8055555 68.3166673,20.8166667 C68.0611105,20.8277778 67.800002,20.8333333 67.533334,20.8333333 L65.133334,20.8333333 L65.133334,36.1666667 L68.833334,36.1666667 C69.6555603,36.1666667 70.0666673,36.5888847 70.0666673,37.4333333 L70.0666673,37.8 C70.0666673,38.1777797 69.9444463,38.3666667 69.7000007,38.3666667 L63.433334,38.3666667 Z M90.8333342,37.9333333 C90.8333342,38.2222237 90.6888912,38.3666667 90.4000009,38.3666667 L89.6000009,38.3666667 C89.3333329,38.3666667 89.1166684,38.2888897 88.9500009,38.1333333 C88.7833334,37.977777 88.6444459,37.7722235 88.5333342,37.5166667 C88.4222226,37.2611098 88.3388901,36.9777793 88.2833342,36.6666667 C88.2277784,36.355554 88.1666679,36.033335 88.1000009,35.7 L84.1333342,11.5 L84.3666676,37.2333333 C84.3888899,37.611113 84.2833354,37.8944435 84.0500009,38.0833333 C83.8166664,38.2722232 83.5333359,38.3666667 83.2000009,38.3666667 L82.4000009,38.3666667 C82.1111106,38.3666667 81.9666676,38.2222237 81.9666676,37.9333333 L81.9666676,1.03333333 C81.9666676,0.855554667 81.9944451,0.738889167 82.0500009,0.683333333 C82.1055567,0.6277775 82.2222222,0.6 82.4000009,0.6 L83.2333342,0.6 C83.6111139,0.6 83.9166664,0.8388865 84.1500009,1.31666667 C84.3833354,1.79444683 84.5777779,2.51110633 84.7333342,3.46666667 L88.6666676,27.3666667 L88.4000009,1.7 C88.4000009,1.38888733 88.5111109,1.12777883 88.7333342,0.916666667 C88.9555576,0.7055545 89.2444436,0.6 89.6000009,0.6 L90.4000009,0.6 C90.5777796,0.6 90.6944451,0.6277775 90.7500009,0.683333333 C90.8055567,0.738889167 90.8333342,0.855554667 90.8333342,1.03333333 L90.8333342,37.9333333 Z M108.400001,37.7 C108.400001,38.1444467 108.177781,38.3666667 107.733334,38.3666667 L106.600001,38.3666667 C106.177777,38.3666667 105.966668,38.1444467 105.966668,37.7 L105.966668,2.8 L103.766668,2.8 C102.944441,2.8 102.533334,2.377782 102.533334,1.53333333 L102.533334,1.16666667 C102.533334,0.788887 102.655555,0.6 102.900001,0.6 L111.400001,0.6 C111.644447,0.6 111.766668,0.788887 111.766668,1.16666667 L111.766668,1.53333333 C111.766668,2.377782 111.355561,2.8 110.533334,2.8 L108.400001,2.8 L108.400001,37.7 Z M139.200002,38.3666667 C139.022223,38.3666667 138.905557,38.3388892 138.850002,38.2833333 C138.794446,38.2277775 138.766668,38.111112 138.766668,37.9333333 L138.766668,1.03333333 C138.766668,0.855554667 138.794446,0.738889167 138.850002,0.683333333 C138.905557,0.6277775 139.022223,0.6 139.200002,0.6 L143.200002,0.6 C144.600009,0.6 145.688887,0.966663 146.466668,1.7 C147.24445,2.433337 147.633335,3.388883 147.633335,4.56666667 L147.633335,20.9 C147.633335,22.0777837 147.24445,23.0277742 146.466668,23.75 C145.688887,24.4722258 144.600009,24.8333333 143.200002,24.8333333 L141.166668,24.8333333 L141.166668,37.3 C141.166668,37.6111127 141.055558,37.8666657 140.833335,38.0666667 C140.611112,38.2666677 140.333337,38.3666667 140.000002,38.3666667 L139.200002,38.3666667 Z M141.166668,2.8 L141.166668,22.6333333 L143.400002,22.6333333 C144.088894,22.6333333 144.566667,22.4500018 144.833335,22.0833333 C145.100003,21.7166648 145.233335,21.3111133 145.233335,20.8666667 L145.233335,4.6 C145.233335,4.11110867 145.088892,3.68889067 144.800002,3.33333333 C144.511111,2.977776 143.977783,2.8 143.200002,2.8 L141.166668,2.8 Z M168.466668,37.9333333 C168.466668,38.111112 168.438891,38.2277775 168.383335,38.2833333 C168.327779,38.3388892 168.211114,38.3666667 168.033335,38.3666667 L167.233335,38.3666667 C166.922222,38.3666667 166.650003,38.2666677 166.416668,38.0666667 C166.183334,37.8666657 166.066668,37.6111127 166.066668,37.3 L166.066668,23.6333333 C166.066668,23.1666643 165.922225,22.7555573 165.633335,22.4 C165.344445,22.0444427 164.811117,21.8666667 164.033335,21.8666667 L162.000002,21.8666667 L162.000002,37.3 C162.000002,37.6111127 161.883336,37.8666657 161.650002,38.0666667 C161.416667,38.2666677 161.144448,38.3666667 160.833335,38.3666667 L160.000002,38.3666667 C159.822223,38.3666667 159.711113,38.3388892 159.666668,38.2833333 C159.622224,38.2277775 159.600002,38.111112 159.600002,37.9333333 L159.600002,1 C159.600002,0.822221333 159.627779,0.705555833 159.683335,0.65 C159.738891,0.594444167 159.855556,0.566666667 160.033335,0.566666667 L164.033335,0.566666667 C164.900006,0.566666667 165.622221,0.683332167 166.200002,0.916666667 C166.777782,1.15000117 167.233333,1.45555367 167.566668,1.83333333 C167.900003,2.211113 168.133334,2.6388865 168.266668,3.11666667 C168.400002,3.59444683 168.466668,4.07777533 168.466668,4.56666667 L168.466668,16.9 C168.466668,17.7444487 168.366669,18.4999967 168.166668,19.1666667 C167.966667,19.8333367 167.588893,20.3666647 167.033335,20.7666667 C167.588893,21.1000017 167.966667,21.5111087 168.166668,22 C168.366669,22.4888913 168.466668,23.0333303 168.466668,23.6333333 L168.466668,37.9333333 Z M162.000002,2.76666667 L162.000002,19.6666667 L164.233335,19.6666667 C164.633337,19.6666667 164.955556,19.5833342 165.200002,19.4166667 C165.444447,19.2499992 165.633334,19.0333347 165.766668,18.7666667 C165.900002,18.4999987 165.983335,18.1944462 166.016668,17.85 C166.050002,17.5055538 166.066668,17.1666683 166.066668,16.8333333 L166.066668,4.56666667 C166.066668,4.07777533 165.922225,3.65555733 165.633335,3.3 C165.344445,2.94444267 164.811117,2.76666667 164.033335,2.76666667 L162.000002,2.76666667 Z M181.333335,4 C181.333335,3.51110867 181.416668,3.03333567 181.583335,2.56666667 C181.750003,2.09999767 182.005556,1.67777967 182.350002,1.3 C182.694448,0.922220333 183.149999,0.616667833 183.716669,0.383333333 C184.283338,0.149998833 184.966665,0.0333333333 185.766669,0.0333333333 C186.566673,0.0333333333 187.249999,0.149998833 187.816669,0.383333333 C188.383338,0.616667833 188.844445,0.922220333 189.200002,1.3 C189.555559,1.67777967 189.816668,2.09999767 189.983335,2.56666667 C190.150003,3.03333567 190.233335,3.51110867 190.233335,4 L190.233335,34.9333333 C190.233335,35.3333353 190.166669,35.7611088 190.033335,36.2166667 C189.900001,36.6722245 189.661115,37.099998 189.316669,37.5 C188.972223,37.900002 188.516672,38.2277765 187.950002,38.4833333 C187.383333,38.7388902 186.666673,38.8666667 185.800002,38.8666667 C184.933331,38.8666667 184.216672,38.7388902 183.650002,38.4833333 C183.083333,38.2277765 182.627782,37.9055575 182.283335,37.5166667 C181.938889,37.1277758 181.694447,36.7055578 181.550002,36.25 C181.405557,35.7944422 181.333335,35.3555577 181.333335,34.9333333 L181.333335,4 Z M183.733335,34.9 C183.733335,35.3888913 183.883334,35.8111093 184.183335,36.1666667 C184.483337,36.522224 185.02222,36.7 185.800002,36.7 C186.577784,36.7 187.111112,36.522224 187.400002,36.1666667 C187.688892,35.8111093 187.833335,35.3888913 187.833335,34.9 L187.833335,4.03333333 C187.833335,3.544442 187.683337,3.122224 187.383335,2.76666667 C187.083334,2.41110933 186.54445,2.23333333 185.766669,2.23333333 C184.988887,2.23333333 184.455559,2.41666483 184.166669,2.78333333 C183.877778,3.15000183 183.733335,3.56666433 183.733335,4.03333333 L183.733335,34.9 Z M211.966669,34.9333333 C211.966669,35.4000023 211.888892,35.8666643 211.733336,36.3333333 C211.577779,36.8000023 211.322226,37.2277758 210.966669,37.6166667 C210.611112,38.0055575 210.155561,38.3166655 209.600002,38.55 C209.044444,38.7833345 208.366673,38.9 207.566669,38.9 C206.655553,38.9 205.911116,38.7611125 205.333336,38.4833333 C204.755555,38.2055542 204.300004,37.8666687 203.966669,37.4666667 C203.633334,37.0666647 203.405558,36.6388912 203.283336,36.1833333 C203.161113,35.7277755 203.100002,35.322224 203.100002,34.9666667 L203.100002,17.8333333 C203.100002,17.6333323 203.244445,17.5333333 203.533336,17.5333333 L204.366669,17.5333333 C204.544448,17.5333333 204.777779,17.5999993 205.066669,17.7333333 C205.355559,17.8666673 205.500002,18.1222203 205.500002,18.5 L205.500002,34.9333333 C205.500002,35.4000023 205.644445,35.8055538 205.933336,36.15 C206.222226,36.4944462 206.744443,36.6777777 207.500002,36.7 C207.966671,36.7 208.333334,36.633334 208.600002,36.5 C208.86667,36.366666 209.072224,36.2055565 209.216669,36.0166667 C209.361114,35.8277768 209.455558,35.6333343 209.500002,35.4333333 C209.544447,35.2333323 209.566669,35.0555563 209.566669,34.9 L209.566669,1.66666667 C209.566669,1.355554 209.683334,1.100001 209.916669,0.9 C210.150003,0.699999 210.433334,0.6 210.766669,0.6 L211.566669,0.6 C211.744448,0.6 211.855558,0.6277775 211.900002,0.683333333 C211.944447,0.738889167 211.966669,0.855554667 211.966669,1.03333333 L211.966669,34.9333333 Z M225.433336,38.3666667 C225.100001,38.3666667 224.900003,38.3388892 224.833336,38.2833333 C224.766669,38.2277775 224.733336,38.08889 224.733336,37.8666667 L224.733336,1.03333333 C224.733336,0.788887667 224.788891,0.655555667 224.900002,0.633333333 C225.011114,0.611111 225.255556,0.6 225.633336,0.6 L231.700002,0.6 C231.944448,0.6 232.066669,0.788887 232.066669,1.16666667 L232.066669,1.53333333 C232.066669,2.377782 231.655562,2.8 230.833336,2.8 L227.133336,2.8 L227.133336,18.6333333 L231.400002,18.6333333 C231.644448,18.6333333 231.766669,18.8222203 231.766669,19.2 L231.766669,19.5666667 C231.766669,19.9000017 231.700003,20.1499992 231.566669,20.3166667 C231.433335,20.4833342 231.255559,20.6055552 231.033336,20.6833333 C230.811112,20.7611115 230.572226,20.8055555 230.316669,20.8166667 C230.061112,20.8277778 229.800004,20.8333333 229.533336,20.8333333 L227.133336,20.8333333 L227.133336,36.1666667 L230.833336,36.1666667 C231.655562,36.1666667 232.066669,36.5888847 232.066669,37.4333333 L232.066669,37.8 C232.066669,38.1777797 231.944448,38.3666667 231.700002,38.3666667 L225.433336,38.3666667 Z M248.500003,0 C249.90001,2.27373675e-13 250.988888,0.3722185 251.766669,1.11666667 C252.544451,1.86111483 252.933336,2.81110533 252.933336,3.96666667 L252.933336,17 C252.933336,17.200001 252.788893,17.3 252.500003,17.3 L251.700003,17.3 C251.500002,17.3 251.25556,17.2388895 250.966669,17.1166667 C250.677779,16.9944438 250.533336,16.7444463 250.533336,16.3666667 L250.533336,4 C250.533336,3.533331 250.377782,3.122224 250.066669,2.76666667 C249.755557,2.41110933 249.222229,2.23333333 248.466669,2.23333333 C247.733332,2.23333333 247.211115,2.41110933 246.900003,2.76666667 C246.58889,3.122224 246.433336,3.533331 246.433336,4 L246.433336,34.9333333 C246.433336,35.4000023 246.583335,35.8111093 246.883336,36.1666667 C247.183338,36.522224 247.722221,36.7 248.500003,36.7 C248.900005,36.7 249.233335,36.644445 249.500003,36.5333333 C249.766671,36.4222217 249.97778,36.2833342 250.133336,36.1166667 C250.288892,35.9499992 250.394447,35.7611122 250.450003,35.55 C250.505559,35.3388878 250.533336,35.1333343 250.533336,34.9333333 L250.533336,22.9333333 C250.533336,22.5333313 250.677779,22.2777783 250.966669,22.1666667 C251.25556,22.055555 251.488891,22 251.666669,22 L252.500003,22 C252.788893,22 252.933336,22.088888 252.933336,22.2666667 L252.933336,34.9666667 C252.933336,36.122228 252.544451,37.066663 251.766669,37.8 C250.988888,38.533337 249.90001,38.9 248.500003,38.9 C247.099996,38.9 246.005562,38.533337 245.216669,37.8 C244.427777,37.066663 244.033336,36.122228 244.033336,34.9666667 L244.033336,3.96666667 C244.033336,2.788883 244.427777,1.833337 245.216669,1.1 C246.005562,0.366663 247.099996,2.27373675e-13 248.500003,0 Z M270.56667,37.7 C270.56667,38.1444467 270.34445,38.3666667 269.900003,38.3666667 L268.76667,38.3666667 C268.344445,38.3666667 268.133336,38.1444467 268.133336,37.7 L268.133336,2.8 L265.933336,2.8 C265.11111,2.8 264.700003,2.377782 264.700003,1.53333333 L264.700003,1.16666667 C264.700003,0.788887 264.822224,0.6 265.06667,0.6 L273.56667,0.6 C273.811115,0.6 273.933336,0.788887 273.933336,1.16666667 L273.933336,1.53333333 C273.933336,2.377782 273.522229,2.8 272.700003,2.8 L270.56667,2.8 L270.56667,37.7 Z M290.033336,38.9 C288.633329,38.9 287.544451,38.533337 286.76667,37.8 C285.988888,37.066663 285.600003,36.122228 285.600003,34.9666667 L285.600003,25.1666667 C285.600003,24.9666657 285.744446,24.8666667 286.033336,24.8666667 L286.86667,24.8666667 C287.044448,24.8666667 287.277779,24.9277772 287.56667,25.05 C287.85556,25.1722228 288.000003,25.4222203 288.000003,25.8 L288.000003,34.9333333 C288.000003,35.4000023 288.150002,35.8111093 288.450003,36.1666667 C288.750005,36.522224 289.277777,36.7 290.033336,36.7 C290.811118,36.7 291.344446,36.522224 291.633336,36.1666667 C291.922227,35.8111093 292.06667,35.4000023 292.06667,34.9333333 C292.06667,32.5999883 291.90556,30.5500088 291.583336,28.7833333 C291.261113,27.0166578 290.861117,25.3944518 290.383336,23.9166667 C289.905556,22.4388815 289.383339,21.03334 288.81667,19.7 C288.25,18.36666 287.727783,16.944452 287.250003,15.4333333 C286.772223,13.9222147 286.372227,12.2500092 286.050003,10.4166667 C285.727779,8.58332417 285.56667,6.44445667 285.56667,4 C285.56667,2.82221633 285.96111,1.87222583 286.750003,1.15 C287.538896,0.427774167 288.633329,0.0666666667 290.033336,0.0666666667 C291.433343,0.0666666667 292.522221,0.427774167 293.300003,1.15 C294.077785,1.87222583 294.46667,2.82221633 294.46667,4 L294.46667,13.9 C294.46667,14.100001 294.322227,14.2 294.033336,14.2 L293.233336,14.2 C293.033335,14.2 292.788893,14.133334 292.500003,14 C292.211113,13.866666 292.06667,13.611113 292.06667,13.2333333 L292.06667,4.03333333 C292.06667,3.544442 291.922227,3.122224 291.633336,2.76666667 C291.344446,2.41110933 290.811118,2.23333333 290.033336,2.23333333 C289.255555,2.23333333 288.716671,2.41666483 288.41667,2.78333333 C288.116668,3.15000183 287.96667,3.57777533 287.96667,4.06666667 C287.96667,6.2889 288.127779,8.2388805 288.450003,9.91666667 C288.772227,11.5944528 289.172223,13.1611038 289.650003,14.6166667 C290.127783,16.0722295 290.65,17.477771 291.21667,18.8333333 C291.783339,20.1888957 292.305556,21.6444367 292.783336,23.2 C293.261117,24.7555633 293.661113,26.4777683 293.983336,28.3666667 C294.30556,30.255565 294.46667,32.455543 294.46667,34.9666667 C294.46667,36.122228 294.077785,37.066663 293.300003,37.8 C292.522221,38.533337 291.433343,38.9 290.033336,38.9 Z" id="recent-projects-copy-2" fill="#00A69E"></path>
            <path d="M2.314,52.64 L8.619,52.64 C9.0523355,52.64 9.4228318,52.7938318 9.7305,53.1015 C10.0381682,53.4091682 10.192,53.7839978 10.192,54.226 L10.192,60.427 C10.192,60.8603355 10.0381682,61.2308318 9.7305,61.5385 C9.4228318,61.8461682 9.0523355,62 8.619,62 L2.314,62 C1.87199779,62 1.49933485,61.8461682 1.196,61.5385 C0.89266515,61.2308318 0.741,60.8603355 0.741,60.427 L0.741,54.226 C0.741,53.7839978 0.89266515,53.4091682 1.196,53.1015 C1.49933485,52.7938318 1.87199779,52.64 2.314,52.64 Z M8.983,53.719 L2.314,53.719 C2.17533264,53.719 2.05616717,53.7688328 1.9565,53.8685 C1.85683284,53.9681672 1.807,54.0873326 1.807,54.226 L1.807,59.647 L8.983,53.719 Z M1.937,60.934 L8.619,60.934 C8.75766736,60.934 8.87683283,60.8841672 8.9765,60.7845 C9.07616716,60.6848328 9.126,60.5656674 9.126,60.427 L9.126,55.006 L1.937,60.934 Z M13.156,52.64 L19.461,52.64 C19.8943355,52.64 20.2648318,52.7938318 20.5725,53.1015 C20.8801682,53.4091682 21.034,53.7839978 21.034,54.226 L21.034,60.427 C21.034,60.8603355 20.8801682,61.2308318 20.5725,61.5385 C20.2648318,61.8461682 19.8943355,62 19.461,62 L13.156,62 C12.7139978,62 12.3413348,61.8461682 12.038,61.5385 C11.7346652,61.2308318 11.583,60.8603355 11.583,60.427 L11.583,54.226 C11.583,53.7839978 11.7346652,53.4091682 12.038,53.1015 C12.3413348,52.7938318 12.7139978,52.64 13.156,52.64 Z M19.825,53.719 L13.156,53.719 C13.0173326,53.719 12.8981672,53.7688328 12.7985,53.8685 C12.6988328,53.9681672 12.649,54.0873326 12.649,54.226 L12.649,59.647 L19.825,53.719 Z M12.779,60.934 L19.461,60.934 C19.5996674,60.934 19.7188328,60.8841672 19.8185,60.7845 C19.9181672,60.6848328 19.968,60.5656674 19.968,60.427 L19.968,55.006 L12.779,60.934 Z M23.998,52.64 L30.303,52.64 C30.7363355,52.64 31.1068318,52.7938318 31.4145,53.1015 C31.7221682,53.4091682 31.876,53.7839978 31.876,54.226 L31.876,60.427 C31.876,60.8603355 31.7221682,61.2308318 31.4145,61.5385 C31.1068318,61.8461682 30.7363355,62 30.303,62 L23.998,62 C23.5559978,62 23.1833349,61.8461682 22.88,61.5385 C22.5766651,61.2308318 22.425,60.8603355 22.425,60.427 L22.425,54.226 C22.425,53.7839978 22.5766651,53.4091682 22.88,53.1015 C23.1833349,52.7938318 23.5559978,52.64 23.998,52.64 Z M30.667,53.719 L23.998,53.719 C23.8593326,53.719 23.7401672,53.7688328 23.6405,53.8685 C23.5408328,53.9681672 23.491,54.0873326 23.491,54.226 L23.491,59.647 L30.667,53.719 Z M23.621,60.934 L30.303,60.934 C30.4416674,60.934 30.5608328,60.8841672 30.6605,60.7845 C30.7601672,60.6848328 30.81,60.5656674 30.81,60.427 L30.81,55.006 L23.621,60.934 Z M34.84,52.627 L41.145,52.627 C41.5783355,52.627 41.9488318,52.7808318 42.2565,53.0885 C42.5641682,53.3961682 42.718,53.7709978 42.718,54.213 L42.718,56.41 C42.718,56.8433355 42.5641682,57.2138318 42.2565,57.5215 C41.9488318,57.8291682 41.5783355,57.983 41.145,57.983 L34.84,57.983 C34.7013326,57.983 34.5821672,58.0328328 34.4825,58.1325 C34.3828328,58.2321672 34.333,58.3513326 34.333,58.49 L34.333,60.427 C34.333,60.5656674 34.3828328,60.6848328 34.4825,60.7845 C34.5821672,60.8841672 34.7013326,60.934 34.84,60.934 L42.718,60.934 L42.718,62 L33.267,62 L33.267,58.49 C33.267,58.0479978 33.4186652,57.6753349 33.722,57.372 C34.0253349,57.0686652 34.3979978,56.917 34.84,56.917 L41.145,56.917 C41.2836674,56.917 41.4028328,56.8671672 41.5025,56.7675 C41.6021672,56.6678328 41.652,56.5486674 41.652,56.41 L41.652,54.213 C41.652,54.0743326 41.6021672,53.9551672 41.5025,53.8555 C41.4028328,53.7558328 41.2836674,53.706 41.145,53.706 L34.84,53.706 C34.7013326,53.706 34.5821672,53.7558328 34.4825,53.8555 C34.3828328,53.9551672 34.333,54.0743326 34.333,54.213 L34.333,54.577 L33.267,54.577 L33.267,54.213 C33.267,53.7709978 33.4186652,53.3961682 33.722,53.0885 C34.0253349,52.7808318 34.3979978,52.627 34.84,52.627 Z" id="0002" fill="#00A69E"></path>
            <path d="M54.5,57.5 L294.5,57.5" id="Line-13" stroke="#FDFDFD" stroke-linecap="square"></path>
        </g>
    </g>
</svg>