<?xml version="1.0" encoding="UTF-8" standalone="no"?>
<svg width="99px" height="99px" viewBox="0 0 99 99" version="1.1" xmlns="http://www.w3.org/2000/svg" xmlns:xlink="http://www.w3.org/1999/xlink">
    <!-- Generator: Sketch 50 (54983) - http://www.bohemiancoding.com/sketch -->
    <title>responsive</title>
    <desc>Created with Sketch.</desc>
    <defs></defs>
    <g id="Welcome" stroke="none" stroke-width="1" fill="none" fill-rule="evenodd">
        <g id="Desktop-HD-Mockup" transform="translate(-1148.000000, -60.000000)">
            <g id="responsive" transform="translate(1148.000000, 60.000000)">
                <rect id="Rectangle-24" stroke="#FFFFFF" transform="translate(49.379572, 49.379572) rotate(-315.000000) translate(-49.379572, -49.379572) " x="15" y="15" width="68.759145" height="68.759145"></rect>
                <g id="X" transform="translate(30.000000, 30.000000)" stroke="#FFFFFF">
                    <path d="M0,0 L39,39" id="Path-20"></path>
                    <path d="M0,39 L39,0" id="Path-20"></path>
                </g>
                <path d="M35.39,51 L35.39,45 L36.2,45 L36.2,51 C36.2,51.333335 36.0833345,51.6166655 35.85,51.85 C35.6166655,52.0833345 35.333335,52.2 35,52.2 L30.2,52.2 C29.866665,52.2 29.5833345,52.0833345 29.35,51.85 C29.1166655,51.6166655 29,51.333335 29,51 L29,50.43 L29.81,50.43 L29.81,51 C29.81,51.1066672 29.8483329,51.198333 29.925,51.275 C30.001667,51.3516671 30.0933328,51.39 30.2,51.39 L35,51.39 C35.1066672,51.39 35.198333,51.3516671 35.275,51.275 C35.3516671,51.198333 35.39,51.1066672 35.39,51 Z" id="J" fill="#00A69E"></path>
                <path d="M70.2,46.2 L70.2,46.49 L69.39,46.49 L69.39,46.2 C69.39,46.0933328 69.3516671,46.001667 69.275,45.925 C69.198333,45.8483329 69.1066672,45.81 69,45.81 L64.2,45.81 C64.0933328,45.81 64.0016671,45.8483329 63.925,45.925 C63.8483329,46.001667 63.81,46.0933328 63.81,46.2 L63.81,51 C63.81,51.1066672 63.8483329,51.198333 63.925,51.275 C64.0016671,51.3516671 64.0933328,51.39 64.2,51.39 L69,51.39 C69.1066672,51.39 69.198333,51.3516671 69.275,51.275 C69.3516671,51.198333 69.39,51.1066672 69.39,51 L69.39,49.22 L67.61,49.22 L67.61,48.4 L70.2,48.4 L70.2,51 C70.2,51.333335 70.0833345,51.6166655 69.85,51.85 C69.6166655,52.0833345 69.333335,52.2 69,52.2 L64.2,52.2 C63.866665,52.2 63.5833345,52.0833345 63.35,51.85 C63.1166655,51.6166655 63,51.333335 63,51 L63,46.2 C63,45.866665 63.1166655,45.5833345 63.35,45.35 C63.5833345,45.1166655 63.866665,45 64.2,45 L69,45 C69.333335,45 69.6166655,45.1166655 69.85,45.35 C70.0833345,45.5833345 70.2,45.866665 70.2,46.2 Z" id="G" fill="#00A69E"></path>
                <g id="share" transform="translate(49.071068, 66.071068) rotate(-45.000000) translate(-49.071068, -66.071068) translate(44.071068, 61.071068)" fill="#FFFFFF" fill-rule="nonzero">
                    <path d="M6.88359375,1.69328125 C6.93390625,1.69328125 6.983125,1.6690625 7.01359375,1.6240625 C7.14671875,1.425625 7.36875,1.30703125 7.6075,1.30703125 C7.69359375,1.30703125 7.76375,1.2371875 7.76375,1.15078125 C7.76375,1.064375 7.69359375,0.99453125 7.6075,0.99453125 C7.26453125,0.99453125 6.94546875,1.16484375 6.75390625,1.44984375 C6.70578125,1.5215625 6.725,1.61859375 6.7965625,1.66671875 C6.82328125,1.6846875 6.85359375,1.69328125 6.88359375,1.69328125 Z" id="Shape"></path>
                    <path d="M1.44426392,4.39835005 C1.31143627,4.38019094 1.18398033,4.44321375 1.15858681,4.53970632 C1.14125085,4.6053996 1.14149502,4.63406252 1.14344836,4.67500954 L1.14466921,4.71720279 C1.14466921,4.81565369 1.25381251,4.89523335 1.38883768,4.89523335 C1.52361867,4.89523335 1.63300615,4.81565369 1.63325032,4.71720279 C1.63325032,4.69370275 1.63251781,4.67678985 1.6317853,4.66290347 C1.63056446,4.63797919 1.63056446,4.63655494 1.63813368,4.60682384 C1.66352721,4.51015325 1.5768474,4.41686523 1.44426392,4.39835005 Z" id="Shape"></path>
                    <path d="M2.2946875,3.52671875 C1.9103125,3.52671875 1.5528125,3.71765625 1.3384375,4.03734375 C1.2903125,4.10890625 1.30953125,4.20609375 1.38109375,4.25421875 C1.40796875,4.27203125 1.43828125,4.280625 1.468125,4.280625 C1.51859375,4.280625 1.56796875,4.25640625 1.59796875,4.21125 C1.75421875,3.9784375 2.0146875,3.83921875 2.2946875,3.83921875 C2.3809375,3.83921875 2.4509375,3.769375 2.4509375,3.68296875 C2.4509375,3.5965625 2.3809375,3.52671875 2.2946875,3.52671875 Z" id="Shape"></path>
                    <path d="M7.45125,5.04234375 C6.53859375,5.04234375 5.74265625,5.545 5.32171875,6.2871875 L4.2115625,5.7428125 C4.38765625,5.42703125 4.4890625,5.06421875 4.4890625,4.6778125 C4.4890625,4.4328125 4.446875,4.1978125 4.3725,3.97765625 L6.07828125,3.24390625 C6.43765625,3.69265625 6.9890625,3.98109375 7.60734375,3.98109375 C8.68796875,3.98109375 9.566875,3.1021875 9.5671875,2.0215625 C9.5671875,0.9409375 8.68796875,0.061875 7.60734375,0.061875 C6.52671875,0.061875 5.6478125,0.9409375 5.6478125,2.0215625 C5.6478125,2.25890625 5.69234375,2.485625 5.77,2.69625 L4.08921875,3.4190625 C3.691875,2.854375 3.03625,2.48359375 2.2946875,2.48359375 C1.085,2.48359375 0.10078125,3.4678125 0.10078125,4.67765625 C0.10078125,5.88734375 1.085,6.8715625 2.2946875,6.8715625 C2.88875,6.8715625 3.42765625,6.6334375 3.823125,6.24859375 L5.08625,6.86796875 C5.03375,7.06703125 5.00296875,7.27484375 5.00296875,7.49015625 C5.00296875,8.84015625 6.1009375,9.93796875 7.4509375,9.93796875 C8.800625,9.93796875 9.8990625,8.84015625 9.8990625,7.49015625 C9.89921875,6.14046875 8.8009375,5.04234375 7.45125,5.04234375 Z M7.6075,0.686875 C8.34328125,0.686875 8.94234375,1.285625 8.94234375,2.0215625 C8.94234375,2.7575 8.34328125,3.35609375 7.6075,3.35609375 C6.87140625,3.35609375 6.27296875,2.7575 6.27296875,2.0215625 C6.27296875,1.285625 6.87140625,0.686875 7.6075,0.686875 Z M2.29484375,6.24671875 C1.4296875,6.24671875 0.7259375,5.54296875 0.7259375,4.6778125 C0.7259375,3.81265625 1.4296875,3.10875 2.29484375,3.10875 C3.16,3.10875 3.86390625,3.81265625 3.8640625,4.6778125 C3.8640625,5.54296875 3.16,6.24671875 2.29484375,6.24671875 Z M7.45125,9.313125 C6.4459375,9.313125 5.6284375,8.49578125 5.6284375,7.4903125 C5.6284375,6.485 6.4459375,5.6675 7.45125,5.6675 C8.45640625,5.6675 9.274375,6.485 9.274375,7.4903125 C9.27421875,8.495625 8.45640625,9.313125 7.45125,9.313125 Z" id="Shape"></path>
                    <path d="M7.295,6.04890625 C6.8653125,6.04890625 6.46625,6.2621875 6.2271875,6.61890625 C6.1790625,6.690625 6.19828125,6.78765625 6.27,6.8359375 C6.29671875,6.85359375 6.32703125,6.8621875 6.356875,6.8621875 C6.4071875,6.8621875 6.45671875,6.838125 6.486875,6.79296875 C6.66765625,6.5228125 6.97,6.36140625 7.295,6.36140625 C7.38109375,6.36140625 7.45125,6.2915625 7.45125,6.20515625 C7.45125,6.11875 7.3809375,6.04890625 7.295,6.04890625 Z" id="Shape"></path>
                </g>
                <path d="M43.21,29.01 L48.06,29.01 C48.393335,29.01 48.6783321,29.1283321 48.915,29.365 C49.1516678,29.6016678 49.27,29.8899983 49.27,30.23 L49.27,35 C49.27,35.333335 49.1516678,35.6183322 48.915,35.855 C48.6783321,36.0916679 48.393335,36.21 48.06,36.21 L43.21,36.21 C42.8699983,36.21 42.5833345,36.0916679 42.35,35.855 C42.1166655,35.6183322 42,35.333335 42,35 L42,30.23 C42,29.8899983 42.1166655,29.6016678 42.35,29.365 C42.5833345,29.1283321 42.8699983,29.01 43.21,29.01 Z M48.34,29.84 L43.21,29.84 C43.1033328,29.84 43.011667,29.878333 42.935,29.955 C42.8583329,30.0316671 42.82,30.1233328 42.82,30.23 L42.82,34.4 L48.34,29.84 Z M42.92,35.39 L48.06,35.39 C48.1666672,35.39 48.2583329,35.351667 48.335,35.275 C48.4116671,35.198333 48.45,35.1066672 48.45,35 L48.45,30.83 L42.92,35.39 Z M57.14,32.25 L57.18,32.43 C57.446668,32.6766679 57.58,32.9766649 57.58,33.33 L57.58,35 C57.58,35.333335 57.4616678,35.6183322 57.225,35.855 C56.9883321,36.0916679 56.703335,36.21 56.37,36.21 L51.52,36.21 C51.1799983,36.21 50.8916678,36.0916679 50.655,35.855 C50.4183321,35.6183322 50.3,35.333335 50.3,35 L50.3,34.84 L51.13,34.84 L51.13,35 C51.13,35.1066672 51.1683329,35.198333 51.245,35.275 C51.321667,35.351667 51.4133328,35.39 51.52,35.39 L56.37,35.39 C56.4766672,35.39 56.5683329,35.351667 56.645,35.275 C56.721667,35.198333 56.76,35.1066672 56.76,35 L56.76,33.33 C56.76,33.2233328 56.721667,33.131667 56.645,33.055 C56.5683329,32.978333 56.4766672,32.94 56.37,32.94 L51.68,32.94 L51.68,32.12 L56.05,32.12 C56.1566672,32.12 56.2483329,32.0816671 56.325,32.005 C56.401667,31.9283329 56.44,31.8366672 56.44,31.73 L56.44,30.22 C56.44,30.1133328 56.401667,30.021667 56.325,29.945 C56.2483329,29.868333 56.1566672,29.83 56.05,29.83 L51.52,29.83 C51.4133328,29.83 51.321667,29.868333 51.245,29.945 C51.1683329,30.021667 51.13,30.1133328 51.13,30.22 L51.13,30.48 L50.3,30.48 L50.3,30.22 C50.3,29.8799983 50.4183321,29.5916679 50.655,29.355 C50.8916678,29.1183322 51.1799983,29 51.52,29 L56.05,29 C56.3900017,29 56.6766655,29.1183322 56.91,29.355 C57.1433345,29.5916679 57.26,29.8799983 57.26,30.22 L57.26,31.73 C57.26,31.9033342 57.2200004,32.0766658 57.14,32.25 Z" id="03" fill="#00A69E"></path>
            </g>
        </g>
    </g>
</svg>