<?xml version="1.0" encoding="UTF-8" standalone="no"?>
<svg width="99px" height="99px" viewBox="0 0 99 99" version="1.1" xmlns="http://www.w3.org/2000/svg" xmlns:xlink="http://www.w3.org/1999/xlink">
    <!-- Generator: Sketch 50 (54983) - http://www.bohemiancoding.com/sketch -->
    <title>time</title>
    <desc>Created with Sketch.</desc>
    <defs></defs>
    <g id="Welcome" stroke="none" stroke-width="1" fill="none" fill-rule="evenodd">
        <g id="Desktop-HD-Mockup" transform="translate(-797.000000, -60.000000)">
            <g id="time" transform="translate(797.000000, 60.000000)">
                <rect id="Rectangle-24" stroke="#FFFFFF" transform="translate(49.379572, 49.379572) rotate(-315.000000) translate(-49.379572, -49.379572) " x="15" y="15" width="68.759145" height="68.759145"></rect>
                <g id="X" transform="translate(30.000000, 30.000000)" stroke="#FFFFFF">
                    <path d="M0,0 L39,39" id="Path-20"></path>
                    <path d="M0,39 L39,0" id="Path-20"></path>
                </g>
                <path d="M35.39,51 L35.39,45 L36.2,45 L36.2,51 C36.2,51.333335 36.0833345,51.6166655 35.85,51.85 C35.6166655,52.0833345 35.333335,52.2 35,52.2 L30.2,52.2 C29.866665,52.2 29.5833345,52.0833345 29.35,51.85 C29.1166655,51.6166655 29,51.333335 29,51 L29,50.43 L29.81,50.43 L29.81,51 C29.81,51.1066672 29.8483329,51.198333 29.925,51.275 C30.001667,51.3516671 30.0933328,51.39 30.2,51.39 L35,51.39 C35.1066672,51.39 35.198333,51.3516671 35.275,51.275 C35.3516671,51.198333 35.39,51.1066672 35.39,51 Z" id="J" fill="#00A69E"></path>
                <path d="M70.2,46.2 L70.2,46.49 L69.39,46.49 L69.39,46.2 C69.39,46.0933328 69.3516671,46.001667 69.275,45.925 C69.198333,45.8483329 69.1066672,45.81 69,45.81 L64.2,45.81 C64.0933328,45.81 64.0016671,45.8483329 63.925,45.925 C63.8483329,46.001667 63.81,46.0933328 63.81,46.2 L63.81,51 C63.81,51.1066672 63.8483329,51.198333 63.925,51.275 C64.0016671,51.3516671 64.0933328,51.39 64.2,51.39 L69,51.39 C69.1066672,51.39 69.198333,51.3516671 69.275,51.275 C69.3516671,51.198333 69.39,51.1066672 69.39,51 L69.39,49.22 L67.61,49.22 L67.61,48.4 L70.2,48.4 L70.2,51 C70.2,51.333335 70.0833345,51.6166655 69.85,51.85 C69.6166655,52.0833345 69.333335,52.2 69,52.2 L64.2,52.2 C63.866665,52.2 63.5833345,52.0833345 63.35,51.85 C63.1166655,51.6166655 63,51.333335 63,51 L63,46.2 C63,45.866665 63.1166655,45.5833345 63.35,45.35 C63.5833345,45.1166655 63.866665,45 64.2,45 L69,45 C69.333335,45 69.6166655,45.1166655 69.85,45.35 C70.0833345,45.5833345 70.2,45.866665 70.2,46.2 Z" id="G" fill="#00A69E"></path>
                <g id="flash" transform="translate(46.000000, 59.000000)" fill="#FFFFFF" fill-rule="nonzero">
                    <path d="M0.509869762,10.4 C0.385092315,10.4 0.273575468,10.3434926 0.20391738,10.2452664 C0.0794594653,10.0695176 0.152792177,9.85282821 0.186662624,9.76425332 L1.22722026,6.0129743 C1.23009605,6.00270023 1.23345114,5.99258184 1.23728553,5.98293044 C1.23888319,5.97903875 1.24016132,5.97530273 1.24096015,5.97203371 C1.23936249,5.97203371 1.23776483,5.97203371 1.2360074,5.97203371 L0.611001803,5.97203371 C0.373269612,5.97203371 0.177236415,5.87349609 0.0735481138,5.70179467 C-0.0310987846,5.52853657 -0.0237495368,5.31075753 0.0935188959,5.10465356 L2.68045413,0.565384903 C2.8633865,0.243308536 3.28421082,0 3.65934199,0 L7.42071898,0 C7.66979457,0 7.86359104,0.102273646 7.95258085,0.280980107 C8.04204995,0.460464907 8.00370605,0.67419659 7.84777418,0.867380143 L5.17568353,4.18668144 L6.31673414,4.18668144 C6.69250438,4.18668144 6.80897398,4.39029472 6.8415663,4.47762427 C6.87399885,4.56479816 6.91841387,4.79160592 6.63594712,5.0265084 L0.900977559,10.2254966 C0.897143169,10.2290769 0.892989246,10.2328129 0.888835324,10.236082 C0.752235174,10.3476957 0.631771416,10.4 0.509869762,10.4 Z M1.84024338,6.18903441 L0.975109103,9.30783577 L5.93744905,4.80935203 L4.98779842,4.80935203 C4.73872282,4.80935203 4.54492635,4.70707839 4.45593655,4.52868326 C4.36630768,4.34919846 4.40465158,4.13531111 4.56058344,3.94181622 L7.23251433,0.622670598 L3.65934199,0.622670598 C3.51746955,0.622670598 3.30945389,0.74378003 3.2393165,0.867068808 L0.684813813,5.34920744 L1.2360074,5.34920744 C1.46463291,5.34920744 1.66274307,5.44400904 1.77937244,5.60948375 C1.89424438,5.77215645 1.91613236,5.98261911 1.84024338,6.18903441 Z" id="Shape"></path>
                    <path d="M2.55454367,3.2 C2.52916428,3.2 2.5034754,3.19434962 2.47964354,3.18220129 C2.40505291,3.14434373 2.37797126,3.05831666 2.41944488,2.99022955 L2.55810297,2.76223661 C2.59957659,2.6941495 2.69382076,2.66914656 2.76841139,2.70728664 C2.84315676,2.7451442 2.87008367,2.83117128 2.82861005,2.89925839 L2.68995196,3.12725132 C2.66163228,3.17372572 2.60886173,3.2 2.55454367,3.2 Z M2.9914095,2.48169511 C2.96603012,2.48169511 2.94034123,2.47604473 2.91650937,2.46389641 C2.84191875,2.42603885 2.81483709,2.34001177 2.85631071,2.27192466 L3.51153209,1.19482048 C3.64570236,0.973608005 3.96588493,0.8 4.24057032,0.8 L4.64524767,0.8 C4.73082571,0.8 4.8,0.863143025 4.8,0.941259564 C4.8,1.0193761 4.73082571,1.08251913 4.64524767,1.08251913 L4.24057032,1.08251913 C4.0766876,1.08251913 3.86266513,1.19891701 3.78203916,1.33184226 L3.12681779,2.4090877 C3.09849811,2.45542084 3.04588232,2.48169511 2.9914095,2.48169511 Z" id="Shape"></path>
                </g>
                <path d="M43.21,29.01 L48.06,29.01 C48.393335,29.01 48.6783321,29.1283321 48.915,29.365 C49.1516678,29.6016679 49.27,29.8899983 49.27,30.23 L49.27,35 C49.27,35.333335 49.1516678,35.6183322 48.915,35.855 C48.6783321,36.0916679 48.393335,36.21 48.06,36.21 L43.21,36.21 C42.8699983,36.21 42.5833345,36.0916679 42.35,35.855 C42.1166655,35.6183322 42,35.333335 42,35 L42,30.23 C42,29.8899983 42.1166655,29.6016679 42.35,29.365 C42.5833345,29.1283321 42.8699983,29.01 43.21,29.01 Z M48.34,29.84 L43.21,29.84 C43.1033328,29.84 43.011667,29.878333 42.935,29.955 C42.8583329,30.0316671 42.82,30.1233328 42.82,30.23 L42.82,34.4 L48.34,29.84 Z M42.92,35.39 L48.06,35.39 C48.1666672,35.39 48.2583329,35.351667 48.335,35.275 C48.4116671,35.198333 48.45,35.1066672 48.45,35 L48.45,30.83 L42.92,35.39 Z M55.67,33.53 L56.79,33.53 L56.79,34.35 L55.67,34.35 L55.67,36.21 L54.85,36.21 L54.85,34.35 L49.83,34.35 L49.83,33.43 L54.75,29 L55.67,29 L55.67,33.53 Z M54.85,30.31 L50.88,33.53 L54.85,33.53 L54.85,30.31 Z" id="04" fill="#00A69E"></path>
            </g>
        </g>
    </g>
</svg>