<?xml version="1.0" encoding="UTF-8" standalone="no"?>
<svg width="273px" height="62px" viewBox="0 0 273 62" version="1.1" xmlns="http://www.w3.org/2000/svg" xmlns:xlink="http://www.w3.org/1999/xlink">
    <!-- Generator: Sketch 50 (54983) - http://www.bohemiancoding.com/sketch -->
    <title>Group 4</title>
    <desc>Created with Sketch.</desc>
    <defs></defs>
    <g id="Welcome" stroke="none" stroke-width="1" fill="none" fill-rule="evenodd">
        <g id="Group-4">
            <path d="M13.9428572,37.7 C13.8761902,38.1222243 13.6317482,38.3333333 13.2095239,38.3333333 L11.6761906,38.3333333 C11.3873002,38.3333333 11.1428582,38.3000003 10.9428572,38.2333333 C10.7428562,38.1666663 10.6206352,37.9888903 10.5761906,37.7 L8.47619057,6.96666667 L6.40952391,37.7 C6.38730157,38.1222243 6.15397057,38.3333333 5.70952391,38.3333333 L3.77619057,38.3333333 C3.33174391,38.3333333 3.09841291,38.1222243 3.07619057,37.7 L0.00952390671,1.03333333 C-0.0126984266,0.855554667 0.00396807337,0.733333667 0.0595239067,0.666666667 C0.11507974,0.599999667 0.23174524,0.566666667 0.409523907,0.566666667 L1.17619057,0.566666667 C1.50952557,0.566666667 1.80396707,0.655554667 2.05952391,0.833333333 C2.31508074,1.011112 2.45396824,1.255554 2.47619057,1.56666667 L4.74285724,32.8333333 L6.80952391,1.56666667 C6.83174624,1.255554 6.97063374,1.011112 7.22619057,0.833333333 C7.48174741,0.655554667 7.76507791,0.566666667 8.07619057,0.566666667 L8.87619057,0.566666667 C9.20952557,0.566666667 9.50396707,0.655554667 9.75952391,0.833333333 C10.0150807,1.011112 10.1650792,1.255554 10.2095239,1.56666667 L12.2428572,32.8333333 L14.5095239,1.56666667 C14.5317462,1.255554 14.6761892,1.011112 14.9428572,0.833333333 C15.2095252,0.655554667 15.5095222,0.566666667 15.8428572,0.566666667 L16.5761906,0.566666667 C16.9095256,0.566666667 17.0428576,0.722220667 16.9761906,1.03333333 L13.9428572,37.7 Z M37.5428575,37.9 C37.5428575,38.0777787 37.51508,38.1944442 37.4595241,38.25 C37.4039683,38.3055558 37.2873028,38.3333333 37.1095241,38.3333333 L36.2761908,38.3333333 C35.9650781,38.3333333 35.6928586,38.2333343 35.4595241,38.0333333 C35.2261896,37.8333323 35.1095241,37.5777793 35.1095241,37.2666667 L35.1095241,20.4333333 L31.0761908,20.4333333 L31.0761908,37.2666667 C31.0761908,37.5777793 30.9650808,37.8333323 30.7428575,38.0333333 C30.5206341,38.2333343 30.2428591,38.3333333 29.9095241,38.3333333 L29.1095241,38.3333333 C28.9317455,38.3333333 28.81508,38.3055558 28.7595241,38.25 C28.7039683,38.1944442 28.6761908,38.0777787 28.6761908,37.9 L28.6761908,1 C28.6761908,0.822221333 28.7039683,0.705555833 28.7595241,0.65 C28.81508,0.594444167 28.9317455,0.566666667 29.1095241,0.566666667 L29.9095241,0.566666667 C30.6873058,0.566666667 31.0761908,0.977773667 31.0761908,1.8 L31.0761908,18.3333333 L35.1095241,18.3333333 L35.1095241,1.63333333 C35.1095241,1.32222067 35.2261896,1.06666767 35.4595241,0.866666667 C35.6928586,0.666665667 35.9761891,0.566666667 36.3095241,0.566666667 L37.1095241,0.566666667 C37.2873028,0.566666667 37.4039683,0.594444167 37.4595241,0.65 C37.51508,0.705555833 37.5428575,0.822221333 37.5428575,1 L37.5428575,37.9 Z M55.076191,37.7666667 C55.076191,38.1444463 54.865082,38.3333333 54.4428577,38.3333333 L53.3428577,38.3333333 C52.898411,38.3333333 52.676191,38.1444463 52.676191,37.7666667 L52.676191,25.0333333 L49.276191,1 C49.209524,0.711109667 49.353967,0.566666667 49.7095244,0.566666667 L50.4428577,0.566666667 C50.7539704,0.566666667 51.0484119,0.638888167 51.326191,0.783333333 C51.6039702,0.9277785 51.7650797,1.133332 51.8095244,1.4 L53.9095244,19.5666667 L56.0095244,1.4 C56.0317467,1.133332 56.1817452,0.9277785 56.4595244,0.783333333 C56.7373035,0.638888167 57.031745,0.566666667 57.3428577,0.566666667 L58.076191,0.566666667 C58.276192,0.566666667 58.4039685,0.605555167 58.4595244,0.683333333 C58.5150802,0.7611115 58.5317467,0.866666 58.5095244,1 L55.076191,25.0333333 L55.076191,37.7666667 Z M94.3761915,34.9 C94.3761915,35.366669 94.2984145,35.833331 94.1428581,36.3 C93.9873018,36.766669 93.7317488,37.1944425 93.3761915,37.5833333 C93.0206341,37.9722242 92.5650831,38.2833322 92.0095248,38.5166667 C91.4539665,38.7500012 90.7761955,38.8666667 89.9761915,38.8666667 C89.0650758,38.8666667 88.3206388,38.7277792 87.7428581,38.45 C87.1650775,38.1722208 86.7095265,37.8333353 86.3761915,37.4333333 C86.0428565,37.0333313 85.815081,36.6055578 85.6928581,36.15 C85.5706353,35.6944422 85.5095248,35.2888907 85.5095248,34.9333333 L85.5095248,17.8 C85.5095248,17.599999 85.6539678,17.5 85.9428581,17.5 L86.7761915,17.5 C86.9539701,17.5 87.1873011,17.566666 87.4761915,17.7 C87.7650818,17.833334 87.9095248,18.088887 87.9095248,18.4666667 L87.9095248,34.9 C87.9095248,35.366669 88.0539678,35.7722205 88.3428581,36.1166667 C88.6317485,36.4611128 89.1539655,36.6444443 89.9095248,36.6666667 C90.3761938,36.6666667 90.7428568,36.6000007 91.0095248,36.4666667 C91.2761928,36.3333327 91.4817463,36.1722232 91.6261915,35.9833333 C91.7706366,35.7944435 91.8650801,35.600001 91.9095248,35.4 C91.9539695,35.199999 91.9761915,35.022223 91.9761915,34.8666667 L91.9761915,1.63333333 C91.9761915,1.32222067 92.092857,1.06666767 92.3261915,0.866666667 C92.559526,0.666665667 92.8428565,0.566666667 93.1761915,0.566666667 L93.9761915,0.566666667 C94.1539701,0.566666667 94.2650801,0.594444167 94.3095248,0.65 C94.3539695,0.705555833 94.3761915,0.822221333 94.3761915,1 L94.3761915,34.9 Z M111.576192,0 C112.976199,0.0222223333 114.065077,0.399996333 114.842858,1.13333333 C115.62064,1.86667033 116.009525,2.81110533 116.009525,3.96666667 L116.009525,15.9 C116.009525,16.100001 115.865082,16.2 115.576192,16.2 L114.776192,16.2 C114.576191,16.2 114.331749,16.133334 114.042858,16 C113.753968,15.866666 113.609525,15.611113 113.609525,15.2333333 L113.609525,4.03333333 C113.609525,3.544442 113.453971,3.122224 113.142858,2.76666667 C112.831746,2.41110933 112.309529,2.23333333 111.576192,2.23333333 C110.820632,2.23333333 110.287304,2.41110933 109.976192,2.76666667 C109.665079,3.122224 109.509525,3.544442 109.509525,4.03333333 L109.509525,34.9 C109.509525,35.366669 109.659524,35.777776 109.959525,36.1333333 C110.259527,36.4888907 110.79841,36.6666667 111.576192,36.6666667 C111.976194,36.6666667 112.309524,36.6111117 112.576192,36.5 C112.84286,36.3888883 113.053969,36.2500008 113.209525,36.0833333 C113.365081,35.9166658 113.470636,35.7277788 113.526192,35.5166667 C113.581748,35.3055545 113.609525,35.100001 113.609525,34.9 L113.609525,22.1666667 L112.809525,22.1666667 C112.031743,22.1666667 111.642858,21.7444487 111.642858,20.9 L111.642858,20.3333333 C111.642858,20.1555547 111.66508,20.0222227 111.709525,19.9333333 C111.75397,19.844444 111.86508,19.8 112.042858,19.8 L115.642858,19.8 C115.887304,19.8 116.009525,19.922221 116.009525,20.1666667 L116.009525,34.9333333 C116.009525,36.0888947 115.62064,37.0333297 114.842858,37.7666667 C114.065077,38.5000037 112.976199,38.8666667 111.576192,38.8666667 C110.176185,38.8666667 109.081751,38.5000037 108.292858,37.7666667 C107.503966,37.0333297 107.109525,36.0888947 107.109525,34.9333333 L107.109525,3.96666667 C107.109525,2.81110533 107.503966,1.86111483 108.292858,1.11666667 C109.081751,0.3722185 110.176185,0 111.576192,0 Z M144.742859,38.3333333 C144.56508,38.3333333 144.448415,38.3055558 144.392859,38.25 C144.337303,38.1944442 144.309525,38.0777787 144.309525,37.9 L144.309525,1 C144.309525,0.822221333 144.337303,0.705555833 144.392859,0.65 C144.448415,0.594444167 144.56508,0.566666667 144.742859,0.566666667 L148.742859,0.566666667 C149.676197,0.566666667 150.431745,0.705554167 151.009525,0.983333333 C151.587306,1.2611125 152.037302,1.6055535 152.359525,2.01666667 C152.681749,2.42777983 152.898414,2.86666433 153.009525,3.33333333 C153.120637,3.80000233 153.176192,4.22222033 153.176192,4.6 L153.176192,34.2666667 C153.176192,35.6444513 152.792863,36.6666633 152.026192,37.3333333 C151.259522,38.0000033 150.231754,38.3333333 148.942859,38.3333333 L144.742859,38.3333333 Z M148.942859,36.1333333 C149.631751,36.1333333 150.109524,35.9500018 150.376192,35.5833333 C150.64286,35.2166648 150.776192,34.8000023 150.776192,34.3333333 L150.776192,4.56666667 C150.776192,4.07777533 150.631749,3.65555733 150.342859,3.3 C150.053968,2.94444267 149.52064,2.76666667 148.742859,2.76666667 L146.709525,2.76666667 L146.709525,36.1333333 L148.942859,36.1333333 Z M166.676192,38.3333333 C166.342857,38.3333333 166.142859,38.3055558 166.076192,38.25 C166.009525,38.1944442 165.976192,38.0555567 165.976192,37.8333333 L165.976192,1 C165.976192,0.755554333 166.031747,0.622222333 166.142859,0.6 C166.253971,0.577777667 166.498413,0.566666667 166.876192,0.566666667 L172.942859,0.566666667 C173.187305,0.566666667 173.309526,0.755553667 173.309526,1.13333333 L173.309526,1.5 C173.309526,2.34444867 172.898419,2.76666667 172.076192,2.76666667 L168.376192,2.76666667 L168.376192,18.6 L172.642859,18.6 C172.887305,18.6 173.009526,18.788887 173.009526,19.1666667 L173.009526,19.5333333 C173.009526,19.8666683 172.94286,20.1166658 172.809526,20.2833333 C172.676192,20.4500008 172.498416,20.5722218 172.276192,20.65 C172.053969,20.7277782 171.815083,20.7722222 171.559526,20.7833333 C171.303969,20.7944445 171.04286,20.8 170.776192,20.8 L168.376192,20.8 L168.376192,36.1333333 L172.076192,36.1333333 C172.898419,36.1333333 173.309526,36.5555513 173.309526,37.4 L173.309526,37.7666667 C173.309526,38.1444463 173.187305,38.3333333 172.942859,38.3333333 L166.676192,38.3333333 Z M191.642859,0.566666667 C191.909527,0.566666667 192.092859,0.611110667 192.192859,0.7 C192.29286,0.788889333 192.320637,0.955554333 192.276193,1.2 L187.176193,36.1 L191.376193,36.1 C192.176197,36.1 192.576193,36.533329 192.576193,37.4 L192.576193,37.7666667 C192.576193,38.1444463 192.465083,38.3333333 192.242859,38.3333333 L185.842859,38.3333333 C185.487302,38.3333333 185.176194,38.2611118 184.909526,38.1166667 C184.642858,37.9722215 184.542859,37.711113 184.609526,37.3333333 L189.642859,2.76666667 L186.076193,2.76666667 C185.298411,2.76666667 184.909526,2.34444867 184.909526,1.5 L184.909526,1.13333333 C184.909526,0.955554667 184.926192,0.816667167 184.959526,0.716666667 C184.992859,0.616666167 185.087303,0.566666667 185.242859,0.566666667 L191.642859,0.566666667 Z M207.009526,37.6666667 C207.009526,38.1111133 206.798417,38.3333333 206.376193,38.3333333 L205.242859,38.3333333 C204.820635,38.3333333 204.609526,38.1111133 204.609526,37.6666667 L204.609526,1.66666667 C204.609526,1.355554 204.726192,1.0944455 204.959526,0.883333333 C205.192861,0.672221167 205.476191,0.566666667 205.809526,0.566666667 L206.609526,0.566666667 C206.787305,0.566666667 206.898415,0.594444167 206.942859,0.65 C206.987304,0.705555833 207.009526,0.822221333 207.009526,1 L207.009526,37.6666667 Z M224.24286,0 C225.642867,0.0222223333 226.731745,0.399996333 227.509526,1.13333333 C228.287308,1.86667033 228.676193,2.81110533 228.676193,3.96666667 L228.676193,15.9 C228.676193,16.100001 228.53175,16.2 228.24286,16.2 L227.44286,16.2 C227.242859,16.2 226.998417,16.133334 226.709526,16 C226.420636,15.866666 226.276193,15.611113 226.276193,15.2333333 L226.276193,4.03333333 C226.276193,3.544442 226.120639,3.122224 225.809526,2.76666667 C225.498414,2.41110933 224.976197,2.23333333 224.24286,2.23333333 C223.4873,2.23333333 222.953972,2.41110933 222.64286,2.76666667 C222.331747,3.122224 222.176193,3.544442 222.176193,4.03333333 L222.176193,34.9 C222.176193,35.366669 222.326192,35.777776 222.626193,36.1333333 C222.926195,36.4888907 223.465078,36.6666667 224.24286,36.6666667 C224.642862,36.6666667 224.976192,36.6111117 225.24286,36.5 C225.509528,36.3888883 225.720637,36.2500008 225.876193,36.0833333 C226.031749,35.9166658 226.137304,35.7277788 226.19286,35.5166667 C226.248416,35.3055545 226.276193,35.100001 226.276193,34.9 L226.276193,22.1666667 L225.476193,22.1666667 C224.698411,22.1666667 224.309526,21.7444487 224.309526,20.9 L224.309526,20.3333333 C224.309526,20.1555547 224.331748,20.0222227 224.376193,19.9333333 C224.420638,19.844444 224.531748,19.8 224.709526,19.8 L228.309526,19.8 C228.553972,19.8 228.676193,19.922221 228.676193,20.1666667 L228.676193,34.9333333 C228.676193,36.0888947 228.287308,37.0333297 227.509526,37.7666667 C226.731745,38.5000037 225.642867,38.8666667 224.24286,38.8666667 C222.842853,38.8666667 221.748419,38.5000037 220.959526,37.7666667 C220.170634,37.0333297 219.776193,36.0888947 219.776193,34.9333333 L219.776193,3.96666667 C219.776193,2.81110533 220.170634,1.86111483 220.959526,1.11666667 C221.748419,0.3722185 222.842853,0 224.24286,0 Z M250.509527,37.9 C250.509527,38.1888903 250.365084,38.3333333 250.076193,38.3333333 L249.276193,38.3333333 C249.009525,38.3333333 248.792861,38.2555563 248.626193,38.1 C248.459526,37.9444437 248.320638,37.7388902 248.209527,37.4833333 C248.098415,37.2277765 248.015082,36.944446 247.959527,36.6333333 C247.903971,36.3222207 247.84286,36.0000017 247.776193,35.6666667 L243.809527,11.4666667 L244.04286,37.2 C244.065082,37.5777797 243.959528,37.8611102 243.726193,38.05 C243.492859,38.2388898 243.209528,38.3333333 242.876193,38.3333333 L242.076193,38.3333333 C241.787303,38.3333333 241.64286,38.1888903 241.64286,37.9 L241.64286,1 C241.64286,0.822221333 241.670637,0.705555833 241.726193,0.65 C241.781749,0.594444167 241.898415,0.566666667 242.076193,0.566666667 L242.909527,0.566666667 C243.287306,0.566666667 243.592859,0.805553167 243.826193,1.28333333 C244.059528,1.7611135 244.25397,2.477773 244.409527,3.43333333 L248.34286,27.3333333 L248.076193,1.66666667 C248.076193,1.355554 248.187303,1.0944455 248.409527,0.883333333 C248.63175,0.672221167 248.920636,0.566666667 249.276193,0.566666667 L250.076193,0.566666667 C250.253972,0.566666667 250.370637,0.594444167 250.426193,0.65 C250.481749,0.705555833 250.509527,0.822221333 250.509527,1 L250.509527,37.9 Z M267.74286,38.8666667 C266.342853,38.8666667 265.253975,38.5000037 264.476193,37.7666667 C263.698412,37.0333297 263.309527,36.0888947 263.309527,34.9333333 L263.309527,25.1333333 C263.309527,24.9333323 263.45397,24.8333333 263.74286,24.8333333 L264.576193,24.8333333 C264.753972,24.8333333 264.987303,24.8944438 265.276193,25.0166667 C265.565084,25.1388895 265.709527,25.388887 265.709527,25.7666667 L265.709527,34.9 C265.709527,35.366669 265.859525,35.777776 266.159527,36.1333333 C266.459528,36.4888907 266.987301,36.6666667 267.74286,36.6666667 C268.520642,36.6666667 269.05397,36.4888907 269.34286,36.1333333 C269.63175,35.777776 269.776193,35.366669 269.776193,34.9 C269.776193,32.566655 269.615084,30.5166755 269.29286,28.75 C268.970636,26.9833245 268.57064,25.3611185 268.09286,23.8833333 C267.61508,22.4055482 267.092863,21.0000067 266.526193,19.6666667 C265.959524,18.3333267 265.437307,16.9111187 264.959527,15.4 C264.481747,13.8888813 264.081751,12.2166758 263.759527,10.3833333 C263.437303,8.54999083 263.276193,6.41112333 263.276193,3.96666667 C263.276193,2.788883 263.670634,1.8388925 264.459527,1.11666667 C265.24842,0.394440833 266.342853,0.0333333333 267.74286,0.0333333333 C269.142867,0.0333333333 270.231745,0.394440833 271.009527,1.11666667 C271.787308,1.8388925 272.176193,2.788883 272.176193,3.96666667 L272.176193,13.8666667 C272.176193,14.0666677 272.03175,14.1666667 271.74286,14.1666667 L270.94286,14.1666667 C270.742859,14.1666667 270.498417,14.1000007 270.209527,13.9666667 C269.920636,13.8333327 269.776193,13.5777797 269.776193,13.2 L269.776193,4 C269.776193,3.51110867 269.63175,3.08889067 269.34286,2.73333333 C269.05397,2.377776 268.520642,2.2 267.74286,2.2 C266.965078,2.2 266.426195,2.3833315 266.126193,2.75 C265.826192,3.1166685 265.676193,3.544442 265.676193,4.03333333 C265.676193,6.25556667 265.837303,8.20554717 266.159527,9.88333333 C266.481751,11.5611195 266.881747,13.1277705 267.359527,14.5833333 C267.837307,16.0388962 268.359524,17.4444377 268.926193,18.8 C269.492863,20.1555623 270.01508,21.6111033 270.49286,23.1666667 C270.97064,24.72223 271.370636,26.444435 271.69286,28.3333333 C272.015084,30.2222317 272.176193,32.4222097 272.176193,34.9333333 C272.176193,36.0888947 271.787308,37.0333297 271.009527,37.7666667 C270.231745,38.5000037 269.142867,38.8666667 267.74286,38.8666667 Z" id="why-jg-dezigns-copy-2" fill="#00A69E"></path>
            <path d="M236.314,52.64 L242.619,52.64 C243.052335,52.64 243.422832,52.7938318 243.7305,53.1015 C244.038168,53.4091682 244.192,53.7839978 244.192,54.226 L244.192,60.427 C244.192,60.8603355 244.038168,61.2308318 243.7305,61.5385 C243.422832,61.8461682 243.052335,62 242.619,62 L236.314,62 C235.871998,62 235.499335,61.8461682 235.196,61.5385 C234.892665,61.2308318 234.741,60.8603355 234.741,60.427 L234.741,54.226 C234.741,53.7839978 234.892665,53.4091682 235.196,53.1015 C235.499335,52.7938318 235.871998,52.64 236.314,52.64 Z M242.983,53.719 L236.314,53.719 C236.175333,53.719 236.056167,53.7688328 235.9565,53.8685 C235.856833,53.9681672 235.807,54.0873326 235.807,54.226 L235.807,59.647 L242.983,53.719 Z M235.937,60.934 L242.619,60.934 C242.757667,60.934 242.876833,60.8841672 242.9765,60.7845 C243.076167,60.6848328 243.126,60.5656674 243.126,60.427 L243.126,55.006 L235.937,60.934 Z M247.156,52.64 L253.461,52.64 C253.894336,52.64 254.264832,52.7938318 254.5725,53.1015 C254.880168,53.4091682 255.034,53.7839978 255.034,54.226 L255.034,60.427 C255.034,60.8603355 254.880168,61.2308318 254.5725,61.5385 C254.264832,61.8461682 253.894336,62 253.461,62 L247.156,62 C246.713998,62 246.341335,61.8461682 246.038,61.5385 C245.734665,61.2308318 245.583,60.8603355 245.583,60.427 L245.583,54.226 C245.583,53.7839978 245.734665,53.4091682 246.038,53.1015 C246.341335,52.7938318 246.713998,52.64 247.156,52.64 Z M253.825,53.719 L247.156,53.719 C247.017333,53.719 246.898167,53.7688328 246.7985,53.8685 C246.698833,53.9681672 246.649,54.0873326 246.649,54.226 L246.649,59.647 L253.825,53.719 Z M246.779,60.934 L253.461,60.934 C253.599667,60.934 253.718833,60.8841672 253.8185,60.7845 C253.918167,60.6848328 253.968,60.5656674 253.968,60.427 L253.968,55.006 L246.779,60.934 Z M257.998,52.64 L264.303,52.64 C264.736335,52.64 265.106832,52.7938318 265.4145,53.1015 C265.722168,53.4091682 265.876,53.7839978 265.876,54.226 L265.876,60.427 C265.876,60.8603355 265.722168,61.2308318 265.4145,61.5385 C265.106832,61.8461682 264.736335,62 264.303,62 L257.998,62 C257.555998,62 257.183335,61.8461682 256.88,61.5385 C256.576665,61.2308318 256.425,60.8603355 256.425,60.427 L256.425,54.226 C256.425,53.7839978 256.576665,53.4091682 256.88,53.1015 C257.183335,52.7938318 257.555998,52.64 257.998,52.64 Z M264.667,53.719 L257.998,53.719 C257.859333,53.719 257.740167,53.7688328 257.6405,53.8685 C257.540833,53.9681672 257.491,54.0873326 257.491,54.226 L257.491,59.647 L264.667,53.719 Z M257.621,60.934 L264.303,60.934 C264.441667,60.934 264.560833,60.8841672 264.6605,60.7845 C264.760167,60.6848328 264.81,60.5656674 264.81,60.427 L264.81,55.006 L257.621,60.934 Z M266.539,55.565 L268.996,52.64 L270.452,52.64 L270.452,62 L269.373,62 L269.373,53.836 C269.251666,53.9920008 269.011168,54.2823312 268.6515,54.707 C268.291832,55.1316688 268.051334,55.4176659 267.93,55.565 L266.539,55.565 Z" id="0001-copy" fill="#00A69E" transform="translate(252.596500, 57.320000) rotate(-360.000000) translate(-252.596500, -57.320000) "></path>
            <path d="M223.5,57.5 L0.5,57.5" id="Line-12" stroke="#FDFDFD" stroke-linecap="square"></path>
        </g>
    </g>
</svg>